<?xml version="1.0" encoding="utf-8"?>
<!-- Generator: Adobe Illustrator 18.0.0, SVG Export Plug-In . SVG Version: 6.00 Build 0)  -->
<!DOCTYPE svg PUBLIC "-//W3C//DTD SVG 1.1//EN" "http://www.w3.org/Graphics/SVG/1.1/DTD/svg11.dtd">
<svg version="1.1" id="Layer_1" xmlns="http://www.w3.org/2000/svg" xmlns:xlink="http://www.w3.org/1999/xlink" x="0px" y="0px"
	 viewBox="0 0 375.1 361.3" enable-background="new 0 0 375.1 361.3" xml:space="preserve">
<rect x="28.4" fill-rule="evenodd" clip-rule="evenodd" fill="none" width="320" height="320"/>
<g>
	<text transform="matrix(1 0 0 1 58.5 167.2518)" fill="#FFFFFF" font-family="'Michroma'" font-size="39.8726" letter-spacing="2">Dimac</text>
	<path fill-rule="evenodd" clip-rule="evenodd" fill="#D8641D" d="M110,178.1c-4.2,5-8.4,10.1-12.6,15.1c0.4,0.3,0.7,0.7,1.1,1
		c4.9-5,9.9-10,14.8-15C112.1,178.9,111,178.5,110,178.1z"/>
	<path fill-rule="evenodd" clip-rule="evenodd" fill="#D8641D" d="M270,134.2c0.1-1.1,0.2-1.7,0.2-2.2c-0.2-9.5-0.4-19.1-0.7-28.6
		c-0.2-6.1-1.3-12.3,1.9-18.1c1.4-2.6,0.4-3.6-2.7-3.6c-8,0-15.9,0-23.9,0c-2.4,0-4.7,0.2-7.4,0.4c0.4,1.3,0.4,2.6,1,3.3
		c1.7,1.9,1.6,4,1.6,6.2c0,3.5,0,7,0,10.5C229,90.3,217.7,78.6,206.4,67c-17.5,21-35,41.8-52.3,62.7c2.7,1.2,5.2,2.7,7.8,4
		c14.3-14.4,28.6-28.9,42.9-43.4c0.7,1.2,1.2,1.9,1.7,2.7c16.9,30.9,33.8,61.9,50.6,92.9c1.2,2.2,2.3,2.6,4.8,2.3
		c12.6-1.7,25.2-3.1,37.7-4.6c4.6-0.5,9.2-1,14.6-1.5C299.3,166,284.7,150,270,134.2z"/>
	<path fill-rule="evenodd" clip-rule="evenodd" fill="#D8641D" d="M316.4,185C316.4,185,316.4,185,316.4,185
		c-3.6,0.3-7.2,0.6-10.9,1c-22.5,2.5-44.8,6.2-66.9,11.2c-24.2,5.5-48,12.4-71.2,21.2c-22.5,8.6-44.1,18.7-64.2,32
		c-0.9,0.6-2.3,1.5-3.6,2.4c6.4,0,13.2,0,18.7,0c9.8,0,16.9,0.1,26.7,0c1.8,0,5.8-0.9,7.4-1.8c6.2-3.3,12.1-7,18.3-10.2
		c28.8-15,59-26.1,90.3-34.6c20.2-5.5,40.7-9.8,61.3-13.4C320.5,190.1,318.7,187.3,316.4,185z"/>
	<path fill-rule="evenodd" clip-rule="evenodd" fill="#D8641D" d="M44.1,252.4c1.5-1.3,2.4-2.3,3.5-3.1c20.7-15.3,43.4-27.1,67-37.2
		c20.4-8.7,41.4-15.9,63.1-20.2c10.7-2.1,21.7-3.3,32.6-4.1c9.4-0.7,18.9-0.2,28.3-0.1c1.1,0,2.3,0.2,3.4,0.4c0,0.3,0.1,0.6,0.1,0.9
		c-1.2,0.3-2.3,0.7-3.5,0.9c-19.6,3.9-39.5,6.6-58.6,12.8c-7,2.3-13.8,5.2-20.7,8c-19.4,7.7-38.1,16.7-55.7,27.9
		c-6.3,4-12.2,8.7-18.4,13c-1,0.7-2.4,1.3-3.5,1.3c-11.7,0.1-23.4,0.1-35,0.1C46.1,252.9,45.4,252.6,44.1,252.4z"/>
	<path fill-rule="evenodd" clip-rule="evenodd" fill="#FFFFFF" d="M324.9,197.7c0,0-100,16.5-160.9,55.2c10.4,0,21.9,0,32.1-0.1
		c5.8,0,10.4-3.1,15.3-5.8c5.6-3.1,11.3-6,17.1-8.9c18-8.9,46.2-16.5,65.4-21.8c14.4-3.9,32.6-7.2,38.6-7L324.9,197.7z"/>
	
		<text transform="matrix(1 0 0 1 61.2505 167.2518)" fill="#FFFFFF" font-family="'Michroma'" font-size="39.8726" letter-spacing="2">Dimac</text>
</g>
<text transform="matrix(1 0 0 1 1.907349e-004 301.2894)" fill="#FFFFFF" font-family="'Michroma'" font-size="39.8726" letter-spacing="2">Construction</text>
<text transform="matrix(0.9829 0 0 1 2.633755e-002 349.3776)" fill="#FFFFFF" font-family="'Michroma'" font-size="39.307" letter-spacing="2">0473 71 11 23</text>
</svg>
