<?xml version="1.0" encoding="UTF-8"?><svg id="Layer_1" xmlns="http://www.w3.org/2000/svg" viewBox="0 0 3401.57 3401.57"><defs><style>.cls-1{fill:#fff;}.cls-2{fill:#d7641d;}</style></defs><path class="cls-2" d="M1955.24,492.96l305.92,319.07v-119.93c0-12.61-13.81-26.72-18.04-36.97-3.35-8.12-3.83-17.33-6.16-25.73l298.29-2.3c39.68,3.07,8.99,38.97,2.6,59.98-18.54,60.88-3.36,167.45-1.49,233.78,1.78,62.88.93,125.98,2.56,188.88l389.62,428.12,10.48,11.31c-104.76,8.32-209.21,20.79-313.58,33.04-53.74,6.31-111.9,18.1-165.12,21.94-16.58,1.2-28.82.71-39.44-13.31l-481.07-882.23-393.97,395.09-72.57-34.24,477.58-576.5h4.4Z"/><path class="cls-2" d="M975.88,2198.31c-2.88-2.52,9.2-10.47,11.2-11.89,170.65-120.71,391.87-222.37,586.87-297.81,421.59-163.11,899.62-271.8,1350.47-312.16,8.88-.8,32.19-4.99,38.78-1.93l52.8,70.4c-1.5,2.53-3.17,2.51-5.56,3.18-40.6,11.41-96.81,16.52-140.06,25-426.18,83.58-860.91,210.83-1245.32,414.05-69.12,36.54-161.89,106.11-238.65,111.26l-410.54-.1Z"/><path class="cls-1" d="M605.92,1409.7v-300.19h220c28.41,0,52.16,1.74,70.59,5.17,19.19,3.57,34.49,10.68,45.49,21.13,11.01,10.47,18.78,25.72,23.09,45.32,4.14,18.87,6.24,44.01,6.24,74.71v7.52c0,29.71-2.1,54.31-6.24,73.12-4.3,19.51-12.05,34.84-23.03,45.55-10.98,10.7-26.27,18.11-45.45,22.01-18.45,3.75-42.23,5.66-70.68,5.66h-220ZM825.91,1366.94c22.03,0,39.94-1.05,53.23-3.13,12.36-1.93,21.77-6.06,28-12.28,6.24-6.24,10.57-16.2,12.86-29.58,2.44-14.27,3.68-33.98,3.68-58.59v-7.52c0-20.48-.75-37.59-2.22-50.85-1.42-12.75-4.02-22.85-7.75-30.01-3.51-6.75-8.43-11.57-15.03-14.74-7.03-3.37-16.43-5.55-27.94-6.5-12.07-.98-27.15-1.48-44.82-1.48h-172.36v214.68h172.36Z"/><path class="cls-1" d="M611.7,1403.92v-288.63h214.22c28.19,0,51.36,1.69,69.53,5.07,18.16,3.38,32.35,9.93,42.56,19.64,10.21,9.71,17.35,23.84,21.42,42.37,4.07,18.54,6.11,43.03,6.11,73.47v7.52c0,29.44-2.04,53.4-6.11,71.88-4.07,18.48-11.21,32.7-21.42,42.65-10.21,9.96-24.4,16.79-42.56,20.48-18.17,3.7-41.34,5.54-69.53,5.54h-214.22ZM647.78,1372.73h178.14c22.42,0,40.46-1.06,54.12-3.19,13.65-2.13,24.05-6.76,31.19-13.9,7.14-7.14,11.96-18.04,14.47-32.7,2.5-14.66,3.76-34.51,3.76-59.57v-7.52c0-20.79-.75-37.96-2.26-51.49-1.5-13.53-4.29-24.21-8.36-32.04-4.07-7.83-9.96-13.59-17.66-17.29-7.71-3.69-17.7-6.04-29.97-7.04-12.28-1-27.37-1.5-45.29-1.5h-178.14v226.24Z"/><path class="cls-1" d="M1007.86,1409.7v-216.01h47.64v216.01h-47.64ZM1007.86,1157.15v-47.64h47.64v47.64h-47.64Z"/><path class="cls-1" d="M1013.64,1151.37v-36.08h36.08v36.08h-36.08ZM1013.64,1403.92v-204.45h36.08v204.45h-36.08Z"/><path class="cls-1" d="M1473.31,1409.7v-126.04c0-18.96-1.95-33.45-5.79-43.05-3.55-8.88-9.23-14.77-17.35-18.01-8.86-3.53-21.19-5.32-36.66-5.32-30.6,0-52.47,4.4-65.02,13.07-12.01,8.3-17.86,21.75-17.9,41.11.12,3.8.19,7.97.19,12.2v126.04h-47.64v-126.04c0-18.96-1.95-33.45-5.79-43.05-3.55-8.88-9.23-14.77-17.35-18.01-8.86-3.53-21.19-5.32-36.66-5.32-30.6,0-52.47,4.4-65.02,13.07-12.04,8.32-17.89,21.83-17.89,41.28v138.07h-47.64v-228.03h47.64v17.64c3.24-2.96,6.72-5.66,10.42-8.06,8.08-5.25,18.45-9.23,30.81-11.81,12.05-2.51,27.59-3.78,46.19-3.78,23.36,0,42.77,3.25,57.72,9.68,12.7,5.46,22.77,14.22,30.04,26.11,5.32-6.68,11.38-12.43,18.1-17.16,9.24-6.5,20.92-11.3,34.71-14.27,13.42-2.89,30.11-4.36,49.6-4.36,23.49,0,42.98,3.29,57.92,9.78,15.57,6.76,27.16,18.4,34.44,34.6,7.01,15.6,10.56,37,10.56,63.63v126.04h-47.64Z"/><path class="cls-1" d="M1098.57,1403.92v-216.47h36.08v26.87c5.38-7.26,11.84-13.34,19.35-18.23,7.52-4.89,17.13-8.55,28.84-10.99,11.71-2.44,26.71-3.66,45-3.66,22.67,0,41.15,3.07,55.43,9.21,14.28,6.14,24.8,16.73,31.57,31.76,6.14-9.52,13.53-17.32,22.17-23.39,8.64-6.07,19.51-10.52,32.6-13.34,13.09-2.82,29.22-4.23,48.39-4.23,22.8,0,41.34,3.1,55.62,9.3,14.28,6.2,24.77,16.76,31.47,31.66,6.7,14.91,10.05,35.33,10.05,61.26v120.26h-36.08v-120.26c0-19.79-2.07-34.86-6.2-45.19-4.13-10.33-10.99-17.41-20.58-21.23-9.58-3.82-22.52-5.73-38.8-5.73-31.95,0-54.71,4.7-68.31,14.09-13.59,9.4-20.39,24.74-20.39,46.04v-.19c.12,3.89.19,7.96.19,12.22v120.26h-36.08v-120.26c0-19.79-2.07-34.86-6.2-45.19-4.13-10.33-10.99-17.41-20.58-21.23-9.58-3.82-22.52-5.73-38.8-5.73-31.95,0-54.71,4.7-68.31,14.09-13.59,9.4-20.39,24.74-20.39,46.04v132.29h-36.08Z"/><path class="cls-1" d="M1676.96,1413.83c-26.12,0-48.01-1.38-65.08-4.11-18.11-2.9-31.9-9.49-40.97-19.61-9.15-10.19-13.79-25.84-13.79-46.52s4.34-36.79,12.9-47.02c8.58-10.25,22.08-16.96,40.14-19.94,16.97-2.79,39.45-4.21,66.8-4.21,22.06,0,40.84.51,55.82,1.52,12.19.82,23.48,2.16,33.69,3.98-.43-12.89-1.46-23.34-3.09-31.13-1.72-8.24-4.86-14.32-9.34-18.08-4.62-3.88-11.73-6.44-21.14-7.61-10.3-1.28-24.25-1.93-41.47-1.93-19.78,0-35.46.44-46.63,1.3-10.64.82-18.32,2.25-22.83,4.23-3.56,1.56-5.67,3.58-6.48,6.18-1.14,3.68-1.71,8.68-1.71,14.83v5.78h-47.64v-5.78c0-14.29,2.03-26.08,6.05-35.06,4.25-9.51,11.54-16.8,21.67-21.65,9.46-4.53,22.41-7.62,38.49-9.18,15.58-1.51,35.46-2.28,59.09-2.28,25.58,0,46.56,1.69,62.36,5.01,16.57,3.49,29.46,9.96,38.32,19.23,8.83,9.24,14.84,22.14,17.85,38.36,2.87,15.44,4.33,35.52,4.33,59.69v109.88h-47.64v-8.88c-2.98,1.73-6.28,3.26-9.89,4.58-7.92,2.9-18.47,5.07-31.35,6.43-12.61,1.33-28.9,2-48.43,2ZM1664.16,1313.2c-10.95,0-20.27.25-27.69.74-9.63.64-16.93,2.01-21.68,4.05-3.9,1.68-6.41,4.16-7.66,7.58-1.57,4.29-2.37,10.35-2.37,18.02s.79,13.22,2.34,17.29c1.24,3.25,3.74,5.62,7.64,7.25,4.76,1.99,12.06,3.3,21.7,3.88,10.13.62,23.76.93,40.52.93,21.28,0,38.46-.25,51.07-.75,12.13-.47,21.19-1.75,26.94-3.8,4.73-1.69,7.7-4.17,9.07-7.6,1.72-4.3,2.59-10.66,2.59-18.9v-27.55l-89.74-1.06c-4.48-.07-8.72-.1-12.73-.1Z"/><path class="cls-1" d="M1676.96,1408.05c-25.93,0-47.32-1.35-64.17-4.04-16.85-2.69-29.38-8.61-37.58-17.76-8.21-9.14-12.31-23.36-12.31-42.66s3.85-34.11,11.56-43.31c7.7-9.21,19.92-15.19,36.64-17.95,16.72-2.75,38.68-4.13,65.86-4.13,22.05,0,40.52.5,55.43,1.5,14.91,1,28.25,2.76,40.02,5.26-.25-16.66-1.38-29.78-3.38-39.37-2-9.58-5.76-16.69-11.27-21.33-5.51-4.63-13.56-7.61-24.15-8.93-10.59-1.31-24.65-1.97-42.19-1.97-20.04,0-35.73.44-47.07,1.31-11.34.88-19.58,2.44-24.71,4.7-5.14,2.25-8.36,5.51-9.68,9.77-1.32,4.26-1.97,9.77-1.97,16.54h-36.08c0-13.53,1.85-24.43,5.54-32.7,3.69-8.27,9.99-14.53,18.89-18.79,8.89-4.26,21.08-7.14,36.55-8.64,15.47-1.5,34.98-2.25,58.53-2.25,25.3,0,45.69,1.63,61.16,4.89,15.47,3.26,27.25,9.11,35.33,17.57,8.08,8.46,13.53,20.26,16.35,35.42,2.82,15.16,4.23,34.7,4.23,58.63v104.1h-36.08v-14.84c-4.26,4.51-10.15,8.14-17.66,10.9-7.52,2.76-17.51,4.79-29.97,6.11-12.47,1.31-28.41,1.97-47.82,1.97ZM1676.96,1378.74c21.42,0,38.52-.25,51.3-.75,12.78-.5,22.33-1.88,28.66-4.13,6.32-2.25,10.49-5.89,12.5-10.9,2-5.01,3.01-12.03,3.01-21.05v-33.26l-95.46-1.13c-16.91-.25-30.54-.03-40.87.66-10.34.69-18.2,2.19-23.58,4.51-5.39,2.32-8.99,5.95-10.8,10.9-1.82,4.95-2.72,11.62-2.72,20.01s.91,14.6,2.72,19.35c1.81,4.76,5.42,8.27,10.8,10.52,5.38,2.25,13.25,3.7,23.58,4.32,10.34.63,23.96.94,40.87.94Z"/><path class="cls-1" d="M1982.31,1413.83c-24.34,0-45.35-1.25-62.46-3.72-17.78-2.57-32.43-7.98-43.54-16.08-11.37-8.28-19.73-20.75-24.85-37.05-4.91-15.64-7.41-36.64-7.41-62.43s2.5-45.5,7.42-60.78c5.12-15.91,13.49-28.14,24.85-36.36,11.1-8.03,25.74-13.43,43.5-16.07,17.11-2.53,38.13-3.82,62.48-3.82,29.13,0,53.53,1.7,72.51,5.07,19.96,3.54,35.09,11.03,44.96,22.27,9.93,11.31,14.97,28.4,14.97,50.79v5.78h-46.14v-5.78c0-10.7-2.08-18.63-6.18-23.55-4.05-4.86-12.08-8.23-23.86-10.01-12.94-1.95-31.87-2.94-56.26-2.94-21.93,0-39.48.93-52.16,2.76-11.83,1.7-20.49,4.93-25.74,9.59-5.1,4.53-8.49,11.58-10.07,20.97-1.75,10.4-2.65,24.56-2.65,42.07s.89,32.82,2.65,43.6c1.59,9.78,4.99,17.09,10.11,21.73,5.23,4.76,13.87,8,25.66,9.64,12.7,1.77,30.26,2.67,52.19,2.67,18.67,0,34.11-.53,45.9-1.58,11.27-1,20.02-2.96,26-5.84,5.38-2.59,8.97-6.17,10.99-10.95,2.25-5.33,3.4-12.77,3.4-22.08v-5.78h46.14v5.78c0,17.6-2.73,32.05-8.11,42.96-5.56,11.25-14.15,19.85-25.52,25.54-10.84,5.42-24.74,9.09-41.32,10.91-16.1,1.77-35.44,2.67-57.47,2.67Z"/><path class="cls-1" d="M1982.31,1408.05c-24.18,0-44.72-1.22-61.63-3.66-16.91-2.44-30.57-7.45-40.96-15.03-10.4-7.58-17.98-18.95-22.74-34.11-4.76-15.16-7.14-35.39-7.14-60.69s2.38-44.22,7.14-59c4.76-14.78,12.34-25.93,22.74-33.45,10.4-7.52,24.05-12.52,40.96-15.03,16.91-2.51,37.46-3.76,61.63-3.76,28.94,0,52.77,1.66,71.5,4.98,18.73,3.32,32.6,10.12,41.62,20.39,9.02,10.27,13.53,25.93,13.53,46.98h-34.58c0-12.15-2.51-21.23-7.52-27.25-5.01-6.01-14.16-10.02-27.43-12.03-13.28-2-32.32-3.01-57.12-3.01-22.3,0-39.96.94-52.99,2.82-13.03,1.88-22.61,5.54-28.75,10.99-6.14,5.45-10.12,13.56-11.93,24.33-1.82,10.78-2.72,25.12-2.72,43.03s.91,33.39,2.72,44.53c1.81,11.15,5.79,19.51,11.93,25.08,6.14,5.58,15.72,9.27,28.75,11.09,13.03,1.82,30.69,2.72,52.99,2.72,18.91,0,34.39-.53,46.41-1.6,12.03-1.06,21.36-3.19,28-6.39,6.64-3.19,11.24-7.83,13.81-13.9,2.57-6.07,3.85-14.19,3.85-24.34h34.58c0,16.79-2.51,30.25-7.52,40.4-5.01,10.15-12.65,17.79-22.92,22.93-10.27,5.14-23.4,8.58-39.37,10.33-15.97,1.75-34.92,2.63-56.84,2.63Z"/><path class="cls-1" d="M86.34,2423.03v-7.18c0-24.41,1.26-44.9,3.79-61.47,2.52-16.57,6.88-30.06,13.06-40.48,6.18-10.41,14.61-18.37,25.27-23.87,10.66-5.5,24.07-9.24,40.23-11.22,16.15-1.98,35.59-2.96,58.31-2.96h76.29c26,0,47.93,1.17,65.79,3.5,17.86,2.33,32.25,6.94,43.16,13.82,10.91,6.88,18.84,16.99,23.76,30.33,4.92,13.34,7.38,31.02,7.38,53.04h-36.35c0-17.35-1.64-30.84-4.92-40.47-3.28-9.63-8.8-16.6-16.56-20.91-7.76-4.31-18.33-6.97-31.71-7.99-13.38-1.02-30.23-1.53-50.55-1.53h-76.29c-18.05,0-33.26.51-45.63,1.53-12.37,1.02-22.43,3.35-30.2,7-7.76,3.65-13.7,9.42-17.8,17.32-4.1,7.9-6.91,18.67-8.42,32.31-1.51,13.64-2.27,30.99-2.27,52.05v7.18c0,20.34.76,37.21,2.27,50.62,1.51,13.4,4.32,24.11,8.42,32.13,4.1,8.02,10.03,14,17.8,17.95,7.76,3.95,17.83,6.52,30.2,7.72,12.37,1.2,27.58,1.79,45.63,1.79h76.29c20.32,0,37.17-.42,50.55-1.26,13.38-.84,23.95-3.29,31.71-7.36,7.76-4.07,13.28-10.86,16.56-20.37,3.28-9.51,4.92-22.88,4.92-40.11h36.35c0,22.02-2.46,39.61-7.38,52.77-4.92,13.16-12.84,23.06-23.76,29.7-10.92,6.64-25.31,11.04-43.16,13.19-17.86,2.16-39.79,3.23-65.79,3.23h-76.29c-28.4,0-51.75-1.82-70.05-5.47-18.3-3.65-32.59-10.38-42.88-20.19-10.29-9.81-17.48-23.93-21.58-42.36-4.1-18.43-6.15-42.42-6.15-71.97Z"/><path class="cls-1" d="M607.72,2561.23c-24.36,0-45.06-1.17-62.1-3.5-17.04-2.33-30.8-7.12-41.27-14.36-10.48-7.24-18.11-18.1-22.91-32.58-4.8-14.48-7.19-33.8-7.19-57.97s2.4-42.24,7.19-56.36c4.8-14.12,12.43-24.77,22.91-31.95,10.47-7.18,24.23-11.96,41.27-14.36,17.04-2.39,37.74-3.59,62.1-3.59s45.21,1.2,62.19,3.59c16.97,2.39,30.7,7.18,41.18,14.36,10.47,7.18,18.11,17.83,22.91,31.95,4.8,14.12,7.19,32.91,7.19,56.36s-2.4,43.5-7.19,57.97c-4.8,14.48-12.43,25.34-22.91,32.58-10.48,7.24-24.2,12.03-41.18,14.36-16.98,2.33-37.71,3.5-62.19,3.5ZM704.83,2452.83c0-17.11-.92-30.81-2.74-41.1-1.83-10.29-5.84-18.04-12.02-23.24-6.19-5.2-15.81-8.71-28.87-10.5-13.06-1.79-30.89-2.69-53.48-2.69s-40.26.9-53.39,2.69c-13.13,1.79-22.78,5.3-28.97,10.5-6.19,5.2-10.19,12.95-12.02,23.24-1.83,10.29-2.75,23.99-2.75,41.1s.91,31.89,2.75,42.54c1.83,10.65,5.84,18.64,12.02,23.96,6.18,5.33,15.84,8.86,28.97,10.59,13.12,1.73,30.92,2.6,53.39,2.6s40.42-.87,53.48-2.6c13.06-1.73,22.69-5.26,28.87-10.59,6.18-5.32,10.19-13.31,12.02-23.96,1.83-10.65,2.74-24.83,2.74-42.54Z"/><path class="cls-1" d="M784.35,2557.29v-206.77h36.35v27.46c5.42-6.94,12.15-12.74,20.16-17.41,8.01-4.67,18.74-8.17,32.18-10.5,13.44-2.33,31.08-3.5,52.91-3.5,28.52,0,51.02,2.63,67.49,7.9,16.47,5.27,28.18,14.66,35.12,28.18,6.94,13.52,10.41,32.67,10.41,57.44v117.2h-36.54v-117.2c0-14.12-1.26-25.49-3.79-34.1-2.53-8.62-6.85-15.14-12.97-19.57-6.12-4.42-14.55-7.39-25.27-8.88-10.73-1.5-24.36-2.24-40.89-2.24-25.24,0-45.06,1.97-59.45,5.92-14.39,3.95-24.55,10.14-30.48,18.58-5.93,8.44-8.9,19.41-8.9,32.93v124.56h-36.35Z"/><path class="cls-1" d="M1209.93,2561.23c-26.5,0-47.8-.84-63.89-2.51-16.09-1.68-28.27-4.78-36.54-9.33-8.27-4.55-13.82-11.01-16.66-19.38-2.84-8.37-4.26-19.26-4.26-32.67h34.83c0,7.54.57,13.61,1.7,18.22,1.14,4.61,4.36,8.14,9.66,10.59,5.3,2.45,13.91,4.13,25.84,5.03,11.93.9,28.68,1.34,50.26,1.34,22.84,0,40.61-.45,53.29-1.34,12.68-.9,21.8-2.57,27.36-5.03,5.55-2.45,8.93-6.01,10.13-10.68,1.2-4.67,1.8-10.83,1.8-18.49,0-9.33-.88-16.33-2.65-21-1.77-4.67-5.93-7.81-12.5-9.42-6.56-1.62-17.04-2.48-31.43-2.6l-86.71-.9c-22.34-.24-39.38-2.03-51.12-5.38-11.74-3.35-19.75-9.24-24.04-17.68-4.29-8.44-6.44-20.43-6.44-35.99,0-14.48,2.37-25.67,7.1-33.56,4.73-7.9,12.15-13.52,22.25-16.87,10.1-3.35,23.22-5.35,39.38-6.01,16.15-.66,35.65-.99,58.5-.99,26.88,0,48.24.78,64.08,2.33,15.84,1.56,27.7,4.49,35.59,8.8,7.89,4.31,13.06,10.56,15.52,18.75,2.46,8.2,3.69,18.88,3.69,32.04h-34.83c0-7.78-.57-13.91-1.7-18.4-1.14-4.49-4.2-7.78-9.18-9.87-4.99-2.09-13.06-3.44-24.23-4.04-11.17-.6-26.85-.9-47.04-.9-22.97,0-40.83.24-53.58.72-12.75.48-21.96,1.62-27.64,3.41s-9.15,4.64-10.41,8.52c-1.26,3.89-1.89,9.24-1.89,16.06s.41,12.42,1.23,16.42c.82,4.01,3,7.03,6.53,9.06,3.53,2.04,9.31,3.38,17.32,4.04,8.01.66,19.22,1.05,33.6,1.17l74.78.72c22.46.24,39.53,2.01,51.21,5.29,11.67,3.29,19.62,9.33,23.85,18.13,4.23,8.79,6.34,21.51,6.34,38.14,0,14.96-2.3,26.74-6.91,35.36-4.61,8.62-11.96,14.99-22.06,19.12-10.1,4.13-23.38,6.79-39.85,7.99-16.47,1.2-36.57,1.79-60.3,1.79Z"/><path class="cls-1" d="M1488.42,2557.29c-22.22,0-40.01-2.12-53.39-6.37-13.38-4.25-23.07-11.79-29.06-22.61-6-10.83-8.99-26.05-8.99-45.68v-188.64h36.35v56.54h134.23v28.36h-134.23v103.74c0,13.4,1.29,23.4,3.88,29.97,2.59,6.58,7.82,10.89,15.71,12.92,7.89,2.04,19.72,3.05,35.5,3.05,14.01,0,25.02-.42,33.04-1.26,8.01-.83,13.91-3.08,17.7-6.73,3.79-3.65,6.18-9.66,7.19-18.04,1.01-8.38,1.51-20.16,1.51-35.36h32.18c0,19.86-1.3,35.78-3.88,47.74-2.59,11.97-7.19,21-13.82,27.1-6.63,6.1-15.9,10.17-27.83,12.21-11.93,2.04-27.29,3.05-46.1,3.05Z"/><path class="cls-1" d="M1636.85,2557.29v-206.77h36.35v28.54c4.04-6.1,8.11-11.19,12.21-15.26,4.1-4.07,9.47-7.3,16.09-9.69,6.63-2.39,15.62-4.1,26.98-5.11,11.36-1.02,26.32-1.53,44.87-1.53v28.9c-24.99,0-44.33.84-58.03,2.51-13.7,1.68-23.51,4.52-29.44,8.52-5.93,4.01-9.53,9.54-10.79,16.6-1.26,7.06-1.89,16.04-1.89,26.92v126.36h-36.35Z"/><path class="cls-1" d="M1931.8,2561.23c-28.53,0-50.99-2.96-67.4-8.88-16.41-5.92-28.08-15.85-35.02-29.8-6.94-13.94-10.41-32.99-10.41-57.16v-114.87h36.54v114.87c0,13.64,1.17,24.86,3.5,33.65,2.33,8.79,6.47,15.61,12.4,20.46,5.93,4.85,14.29,8.23,25.08,10.14,10.79,1.91,24.71,2.87,41.74,2.87,25.24,0,45.06-1.97,59.45-5.92,14.39-3.95,24.58-10.14,30.57-18.58,5.99-8.44,8.99-19.41,8.99-32.93v-124.56h36.35v206.77h-36.35v-27.46c-5.3,6.94-11.99,12.74-20.07,17.41-8.08,4.67-18.87,8.17-32.37,10.5-13.51,2.33-31.18,3.5-53.01,3.5Z"/><path class="cls-1" d="M2250.23,2561.23c-24.36,0-45.06-1.17-62.1-3.5-17.04-2.33-30.8-7.12-41.27-14.36-10.48-7.24-18.11-18.1-22.91-32.58-4.8-14.48-7.19-33.8-7.19-57.97s2.4-42.24,7.19-56.36c4.8-14.12,12.43-24.77,22.91-31.95,10.47-7.18,24.23-11.96,41.27-14.36,17.04-2.39,37.74-3.59,62.1-3.59,29.15,0,53.17,1.59,72.03,4.76,18.87,3.17,32.85,9.66,41.93,19.47,9.09,9.81,13.63,24.77,13.63,44.87h-34.83c0-11.61-2.53-20.28-7.57-26.03-5.05-5.74-14.26-9.57-27.64-11.49-13.38-1.91-32.56-2.87-57.55-2.87-22.47,0-40.26.9-53.39,2.69-13.13,1.79-22.78,5.3-28.97,10.5-6.19,5.2-10.19,12.95-12.02,23.24-1.83,10.29-2.75,23.99-2.75,41.1s.91,31.89,2.75,42.54c1.83,10.65,5.84,18.64,12.02,23.96,6.18,5.33,15.84,8.86,28.97,10.59,13.12,1.73,30.92,2.6,53.39,2.6,19.06,0,34.65-.51,46.76-1.53,12.12-1.01,21.52-3.05,28.21-6.1,6.69-3.05,11.33-7.48,13.91-13.28,2.59-5.8,3.88-13.55,3.88-23.24h34.83c0,16.04-2.53,28.9-7.57,38.59-5.05,9.69-12.75,16.99-23.1,21.9-10.35,4.91-23.57,8.2-39.66,9.87-16.09,1.67-35.18,2.51-57.27,2.51Z"/><path class="cls-1" d="M2521.15,2557.29c-22.22,0-40.01-2.12-53.39-6.37-13.38-4.25-23.07-11.79-29.06-22.61-6-10.83-8.99-26.05-8.99-45.68v-188.64h36.35v56.54h134.23v28.36h-134.23v103.74c0,13.4,1.29,23.4,3.88,29.97,2.59,6.58,7.82,10.89,15.71,12.92,7.89,2.04,19.72,3.05,35.5,3.05,14.01,0,25.02-.42,33.04-1.26,8.01-.83,13.91-3.08,17.7-6.73,3.79-3.65,6.18-9.66,7.19-18.04,1.01-8.38,1.51-20.16,1.51-35.36h32.18c0,19.86-1.3,35.78-3.88,47.74-2.59,11.97-7.19,21-13.82,27.1-6.63,6.1-15.9,10.17-27.83,12.21-11.93,2.04-27.29,3.05-46.1,3.05Z"/><path class="cls-1" d="M2665.79,2316.06v-34.46h36.35v34.46h-36.35ZM2665.79,2557.29v-195.28h36.35v195.28h-36.35Z"/><path class="cls-1" d="M2878.01,2561.23c-24.36,0-45.06-1.17-62.1-3.5-17.04-2.33-30.8-7.12-41.27-14.36-10.48-7.24-18.11-18.1-22.91-32.58-4.8-14.48-7.19-33.8-7.19-57.97s2.4-42.24,7.19-56.36c4.8-14.12,12.43-24.77,22.91-31.95,10.47-7.18,24.23-11.96,41.27-14.36,17.04-2.39,37.74-3.59,62.1-3.59s45.21,1.2,62.19,3.59c16.97,2.39,30.7,7.18,41.18,14.36,10.47,7.18,18.11,17.83,22.91,31.95,4.8,14.12,7.19,32.91,7.19,56.36s-2.4,43.5-7.19,57.97c-4.8,14.48-12.43,25.34-22.91,32.58-10.48,7.24-24.2,12.03-41.18,14.36-16.98,2.33-37.71,3.5-62.19,3.5ZM2975.13,2452.83c0-17.11-.92-30.81-2.74-41.1-1.83-10.29-5.84-18.04-12.02-23.24-6.19-5.2-15.81-8.71-28.87-10.5-13.06-1.79-30.89-2.69-53.48-2.69s-40.26.9-53.39,2.69c-13.13,1.79-22.78,5.3-28.97,10.5-6.19,5.2-10.19,12.95-12.02,23.24-1.83,10.29-2.75,23.99-2.75,41.1s.91,31.89,2.75,42.54c1.83,10.65,5.84,18.64,12.02,23.96,6.18,5.33,15.84,8.86,28.97,10.59,13.12,1.73,30.92,2.6,53.39,2.6s40.42-.87,53.48-2.6c13.06-1.73,22.69-5.26,28.87-10.59,6.18-5.32,10.19-13.31,12.02-23.96,1.83-10.65,2.74-24.83,2.74-42.54Z"/><path class="cls-1" d="M3054.64,2557.29v-206.77h36.35v27.46c5.42-6.94,12.15-12.74,20.16-17.41,8.01-4.67,18.74-8.17,32.18-10.5,13.44-2.33,31.08-3.5,52.91-3.5,28.52,0,51.02,2.63,67.49,7.9,16.47,5.27,28.18,14.66,35.12,28.18,6.94,13.52,10.41,32.67,10.41,57.44v117.2h-36.54v-117.2c0-14.12-1.26-25.49-3.79-34.1-2.53-8.62-6.85-15.14-12.97-19.57-6.12-4.42-14.55-7.39-25.27-8.88-10.73-1.5-24.36-2.24-40.89-2.24-25.24,0-45.06,1.97-59.45,5.92-14.39,3.95-24.55,10.14-30.48,18.58-5.93,8.44-8.9,19.41-8.9,32.93v124.56h-36.35Z"/><path class="cls-1" d="M78.45,2795.1v-5.82c0-19.79,1.02-36.4,3.07-49.84,2.05-13.43,5.58-24.38,10.59-32.81,5.01-8.44,11.84-14.89,20.49-19.36,8.65-4.46,19.52-7.49,32.62-9.09,13.1-1.6,28.86-2.4,47.28-2.4h31.62c18.42,0,34.18.8,47.28,2.4,13.1,1.6,23.97,4.63,32.62,9.09,8.65,4.46,15.48,10.91,20.49,19.36,5.01,8.44,8.54,19.38,10.59,32.81,2.05,13.44,3.07,30.05,3.07,49.84v5.82c0,23.96-1.66,43.42-4.99,58.36-3.33,14.94-9.16,26.39-17.5,34.34-8.34,7.96-19.93,13.41-34.77,16.37-14.84,2.96-33.77,4.44-56.79,4.44h-31.62c-23.02,0-41.96-1.48-56.79-4.44-14.84-2.96-26.43-8.42-34.77-16.37-8.34-7.95-14.17-19.4-17.5-34.34-3.33-14.94-4.99-34.39-4.99-58.36ZM308.7,2789.28c0-17.07-.61-31.14-1.84-42.2s-3.51-19.79-6.83-26.19c-3.33-6.4-8.14-11.08-14.43-14.04-6.29-2.96-14.46-4.85-24.48-5.67-10.03-.82-22.36-1.24-36.99-1.24h-31.62c-14.63,0-26.96.41-36.99,1.24-10.03.82-18.19,2.72-24.48,5.67-6.29,2.96-11.1,7.64-14.43,14.04-3.33,6.4-5.6,15.13-6.83,26.19-1.23,11.06-1.84,25.13-1.84,42.2v5.82c0,16.49.61,30.17,1.84,41.04,1.23,10.87,3.5,19.55,6.83,26.05,3.32,6.5,8.14,11.35,14.43,14.55,6.29,3.2,14.45,5.29,24.48,6.26,10.03.97,22.36,1.46,36.99,1.46h31.62c14.63,0,26.96-.49,36.99-1.46,10.03-.97,18.19-3.06,24.48-6.26,6.29-3.2,11.1-8.05,14.43-14.55,3.32-6.5,5.6-15.18,6.83-26.05s1.84-24.54,1.84-41.04v-5.82Z"/><path class="cls-1" d="M583.77,2903.96v-46.57h-206.3v-27.94l196.48-149.02h39.3v153.68h39.3v23.28h-39.3v46.57h-29.47ZM406.94,2834.1h176.83v-135.05l-176.83,135.05Z"/><path class="cls-1" d="M740.95,2903.96l181.74-200.24h-230.86v-23.28h265.25v27.94l-176.83,195.59h-39.3Z"/><path class="cls-1" d="M1104.13,2908.61c-23.03,0-41.6-1.16-55.72-3.49-14.12-2.33-24.92-6.16-32.39-11.5-7.47-5.34-12.51-12.44-15.12-21.32-2.61-8.88-3.91-19.86-3.91-32.96h29.47c0,9.7.74,17.51,2.23,23.43,1.48,5.92,4.78,10.45,9.9,13.61,5.12,3.15,13,5.29,23.64,6.4,10.64,1.12,25.12,1.68,43.44,1.68h41.14c18.32,0,32.8-.56,43.44-1.68,10.64-1.11,18.52-3.25,23.64-6.4,5.12-3.15,8.42-7.69,9.9-13.61,1.48-5.92,2.23-13.73,2.23-23.43,0-8.63-.72-15.57-2.15-20.81-1.43-5.24-4.66-9.22-9.67-11.93-5.02-2.71-12.79-4.53-23.33-5.46-10.54-.92-24.97-1.38-43.29-1.38h-45.74v-23.43h51.88c16.78,0,30.03-.48,39.76-1.46,9.72-.97,16.91-2.74,21.57-5.31,4.65-2.57,7.65-6.3,8.98-11.2,1.33-4.9,2-11.28,2-19.14,0-9.31-.95-16.64-2.84-21.98-1.9-5.33-5.66-9.22-11.28-11.64-5.63-2.42-13.94-3.98-24.94-4.66-11-.68-25.66-1.02-43.98-1.02h-33.46c-18.32,0-32.98.34-43.98,1.02-11,.68-19.32,2.23-24.94,4.66-5.63,2.43-9.39,6.31-11.28,11.64-1.89,5.34-2.84,12.66-2.84,21.98h-29.47c0-12.71,1.51-23.19,4.53-31.43,3.02-8.24,8.49-14.7,16.43-19.35,7.93-4.66,19.16-7.93,33.69-9.82,14.53-1.89,33.31-2.84,56.33-2.84h36.53c23.03,0,41.8.95,56.33,2.84,14.53,1.89,25.76,5.17,33.69,9.82,7.93,4.66,13.41,11.11,16.43,19.35,3.02,8.25,4.53,18.72,4.53,31.43,0,15.04-2.99,26.53-8.98,34.49s-13.69,12.76-23.1,14.41c9.52,1.84,17.24,6.94,23.18,15.28,5.93,8.34,8.9,20.32,8.9,35.94,0,13.1-1.31,24.08-3.91,32.96-2.61,8.88-7.65,15.98-15.12,21.32-7.47,5.34-18.27,9.17-32.39,11.5-14.12,2.33-32.7,3.49-55.72,3.49h-44.21Z"/><path class="cls-1" d="M1433.85,2903.96l181.74-200.24h-230.86v-23.28h265.25v27.94l-176.83,195.59h-39.3Z"/><path class="cls-1" d="M1729.18,2903.96v-23.28h94.25v-176.67l-87.96,27.8-9.36-21.54,95.17-29.83h31.62v200.24h82.28v23.28h-206Z"/><path class="cls-1" d="M2117.54,2903.96v-23.28h94.25v-176.67l-87.96,27.8-9.36-21.54,95.17-29.83h31.62v200.24h82.28v23.28h-206Z"/><path class="cls-1" d="M2416.55,2903.96v-23.28h94.25v-176.67l-87.96,27.8-9.36-21.54,95.17-29.83h31.62v200.24h82.28v23.28h-206Z"/><path class="cls-1" d="M2770.83,2849.97c0-13,1.28-23.92,3.84-32.74,2.56-8.83,7.47-15.91,14.74-21.25,7.27-5.33,17.83-9.19,31.7-11.57,13.87-2.38,32.06-3.61,54.57-3.71h54.95c15.96,0,28.42-.51,37.38-1.53,8.95-1.02,15.48-2.96,19.57-5.82,4.09-2.86,6.62-7.03,7.6-12.51.97-5.48,1.46-12.68,1.46-21.61s-.92-16.64-2.76-21.98c-1.84-5.33-5.48-9.22-10.9-11.64-5.43-2.42-13.43-3.98-24.02-4.66-10.59-.68-24.64-1.02-42.14-1.02h-33.46c-18.32,0-32.98.34-43.98,1.02-11,.68-19.32,2.23-24.94,4.66-5.63,2.43-9.39,6.31-11.28,11.64-1.9,5.34-2.84,12.66-2.84,21.98h-29.47c0-12.71,1.51-23.19,4.53-31.43,3.02-8.24,8.49-14.7,16.42-19.35,7.93-4.66,19.16-7.93,33.69-9.82,14.53-1.89,33.31-2.84,56.33-2.84h36.53c22.21,0,40.37.95,54.49,2.84,14.12,1.89,25.04,5.17,32.77,9.82,7.73,4.66,13.07,11.11,16.04,19.35,2.97,8.25,4.45,18.72,4.45,31.43,0,16.3-2.28,29.18-6.83,38.64-4.55,9.46-12.54,16.2-23.95,20.23-11.41,4.03-27.5,6.04-48.28,6.04h-67.54c-18.32,0-32.8.58-43.44,1.75-10.64,1.16-18.52,3.37-23.64,6.62-5.12,3.25-8.42,7.88-9.9,13.9-1.48,6.02-2.23,13.88-2.23,23.58v30.71h216.43v23.28h-245.91v-53.99Z"/><path class="cls-1" d="M3171.77,2908.61c-23.03,0-41.6-1.16-55.72-3.49-14.12-2.33-24.92-6.16-32.39-11.5-7.47-5.34-12.51-12.44-15.12-21.32-2.61-8.88-3.91-19.86-3.91-32.96h29.47c0,9.7.74,17.51,2.23,23.43,1.48,5.92,4.78,10.45,9.9,13.61,5.12,3.15,13,5.29,23.64,6.4,10.64,1.12,25.12,1.68,43.44,1.68h41.14c18.32,0,32.8-.56,43.44-1.68,10.64-1.11,18.52-3.25,23.64-6.4,5.12-3.15,8.42-7.69,9.9-13.61,1.48-5.92,2.23-13.73,2.23-23.43,0-8.63-.72-15.57-2.15-20.81-1.43-5.24-4.66-9.22-9.67-11.93-5.02-2.71-12.79-4.53-23.33-5.46-10.54-.92-24.97-1.38-43.29-1.38h-45.74v-23.43h51.88c16.78,0,30.03-.48,39.76-1.46,9.72-.97,16.91-2.74,21.57-5.31,4.65-2.57,7.65-6.3,8.98-11.2,1.33-4.9,2-11.28,2-19.14,0-9.31-.95-16.64-2.84-21.98-1.9-5.33-5.66-9.22-11.28-11.64-5.63-2.42-13.94-3.98-24.94-4.66-11-.68-25.66-1.02-43.98-1.02h-33.46c-18.32,0-32.98.34-43.98,1.02-11,.68-19.32,2.23-24.94,4.66-5.63,2.43-9.39,6.31-11.28,11.64-1.89,5.34-2.84,12.66-2.84,21.98h-29.47c0-12.71,1.51-23.19,4.53-31.43,3.02-8.24,8.49-14.7,16.43-19.35,7.93-4.66,19.16-7.93,33.69-9.82,14.53-1.89,33.31-2.84,56.33-2.84h36.53c23.03,0,41.8.95,56.33,2.84,14.53,1.89,25.76,5.17,33.69,9.82,7.93,4.66,13.41,11.11,16.43,19.35,3.02,8.25,4.53,18.72,4.53,31.43,0,15.04-2.99,26.53-8.98,34.49-5.99,7.96-13.69,12.76-23.1,14.41,9.52,1.84,17.24,6.94,23.18,15.28,5.93,8.34,8.9,20.32,8.9,35.94,0,13.1-1.31,24.08-3.91,32.96-2.61,8.88-7.65,15.98-15.12,21.32-7.47,5.34-18.27,9.17-32.39,11.5-14.12,2.33-32.7,3.49-55.72,3.49h-44.21Z"/><path class="cls-1" d="M3055.3,1691.4l70.91,112.65s-562.57,56.32-1063.68,314.47c0,0-137.38,83.15-198.55,79.79h-283.65s413.65-307.43,1474.97-506.91Z"/><path class="cls-2" d="M2280.71,1602.24c-1-1.24-27.18-4.48-31.56-4.74-524.52-31.2-1066.38,151.59-1514.65,411.2-74.66,43.24-189.44,109.66-251.65,166.48-2.54,2.32-20.99,20.65-18.69,23.23h18.44c4.35-.15,8.6-.26,12.3,0,.03,0,.06,0,.08,0h307.57c15.94,0,31.42-5.45,43.75-15.55,2.86-2.35,5.87-4.72,9.22-6.95,37.6-25.04,73.4-54.9,110.85-80.61,208.73-143.3,473.71-263.62,712.63-348.12,194.67-68.85,401.13-91.46,601.73-136.62.66-.8.66-7.48-.02-8.33Z"/><path class="cls-2" d="M1067.58,1512l-113.08,134.5,8.88,8.88,133.51-131.55c1.32-5.77-24.12-12.02-29.31-11.83Z"/></svg>