<?xml version="1.0" encoding="UTF-8"?><svg id="Layer_1" xmlns="http://www.w3.org/2000/svg" viewBox="0 0 3401.57 2323.81"><defs><style>.cls-1{fill:#fff;}.cls-2{fill:#d7641d;}</style></defs><path class="cls-2" d="M1894.56,135.56l364.39,380.05v-142.85c0-15.01-16.45-31.83-21.49-44.04-3.99-9.68-4.57-20.64-7.34-30.64l355.3-2.74c47.26,3.66,10.71,46.42,3.09,71.44-22.08,72.52-4.01,199.45-1.78,278.46,2.12,74.9,1.11,150.06,3.05,224.98l464.08,509.94,12.48,13.48c-124.78,9.91-249.19,24.76-373.52,39.36-64.01,7.52-133.29,21.56-196.68,26.13-19.75,1.43-34.33.85-46.98-15.85L1876.16,392.43l-469.27,470.6-86.43-40.78L1889.31,135.56h5.24Z"/><path class="cls-2" d="M728.01,2166.84c-3.44-3,10.95-12.48,13.34-14.16,203.26-143.78,466.77-264.87,699.04-354.73,502.17-194.29,1071.56-323.75,1608.59-371.82,10.58-.95,38.34-5.94,46.19-2.3l62.89,83.86c-1.79,3.01-3.77,2.99-6.62,3.79-48.35,13.59-115.32,19.68-166.83,29.78-507.64,99.55-1025.46,251.13-1483.33,493.19-82.33,43.52-192.83,126.39-284.27,132.53l-489-.12Z"/><path class="cls-1" d="M287.34,1227.51v-357.57h262.05c33.84,0,62.12,2.07,84.08,6.16,22.86,4.26,41.09,12.72,54.18,25.17,13.12,12.48,22.37,30.64,27.5,53.99,4.93,22.48,7.43,52.42,7.43,88.99v8.95c0,35.39-2.5,64.69-7.44,87.09-5.12,23.24-14.35,41.49-27.43,54.25-13.07,12.75-31.29,21.57-54.13,26.22-21.98,4.47-50.3,6.74-84.19,6.74h-262.05ZM549.38,1176.58c26.24,0,47.57-1.25,63.4-3.72,14.72-2.3,25.93-7.22,33.35-14.63,7.44-7.44,12.59-19.29,15.32-35.24,2.91-17,4.38-40.48,4.38-69.79v-8.95c0-24.4-.89-44.78-2.65-60.57-1.69-15.19-4.79-27.21-9.23-35.75-4.18-8.04-10.04-13.79-17.91-17.56-8.37-4.01-19.57-6.62-33.28-7.74-14.38-1.17-32.34-1.77-53.38-1.77h-205.3v255.71h205.3Z"/><path class="cls-1" d="M294.22,1220.62v-343.8h255.16c33.57,0,61.18,2.01,82.82,6.04,21.63,4.03,38.53,11.83,50.7,23.39,12.16,11.57,20.67,28.39,25.52,50.47,4.85,22.09,7.27,51.26,7.27,87.52v8.95c0,35.07-2.43,63.6-7.27,85.61-4.85,22.01-13.36,38.94-25.52,50.81-12.16,11.86-29.06,20-50.7,24.4-21.64,4.4-49.24,6.6-82.82,6.6h-255.16ZM337.2,1183.47h212.18c26.71,0,48.2-1.27,64.46-3.81,16.26-2.54,28.65-8.06,37.15-16.56,8.51-8.51,14.25-21.49,17.23-38.95,2.98-17.46,4.48-41.11,4.48-70.95v-8.95c0-24.77-.9-45.21-2.69-61.33-1.79-16.11-5.11-28.84-9.96-38.16-4.85-9.32-11.86-16.19-21.04-20.59-9.18-4.4-21.08-7.2-35.7-8.39-14.63-1.19-32.6-1.79-53.94-1.79h-212.18v269.48Z"/><path class="cls-1" d="M766.1,1227.51v-257.29h56.75v257.29h-56.75ZM766.1,926.69v-56.75h56.75v56.75h-56.75Z"/><path class="cls-1" d="M772.98,919.8v-42.97h42.97v42.97h-42.97ZM772.98,1220.62v-243.52h42.97v243.52h-42.97Z"/><path class="cls-1" d="M1320.51,1227.51v-150.13c0-22.59-2.32-39.84-6.89-51.27-4.23-10.58-10.99-17.59-20.67-21.45-10.55-4.21-25.24-6.34-43.67-6.34-36.45,0-62.5,5.24-77.44,15.57-14.3,9.88-21.27,25.9-21.32,48.97.15,4.52.22,9.49.22,14.53v150.13h-56.75v-150.13c0-22.59-2.32-39.84-6.89-51.27-4.23-10.58-10.99-17.59-20.67-21.45-10.55-4.21-25.24-6.34-43.67-6.34-36.45,0-62.5,5.24-77.44,15.57-14.34,9.91-21.31,26-21.31,49.17v164.46h-56.75v-271.62h56.75v21.01c3.86-3.53,8.01-6.74,12.41-9.6,9.63-6.26,21.98-10.99,36.7-14.06,14.35-2.99,32.86-4.51,55.01-4.51,27.82,0,50.95,3.88,68.75,11.52,15.13,6.5,27.12,16.94,35.78,31.09,6.33-7.96,13.55-14.81,21.56-20.44,11.01-7.74,24.92-13.46,41.35-16.99,15.99-3.44,35.87-5.19,59.08-5.19,27.98,0,51.2,3.92,69,11.65,18.55,8.06,32.35,21.92,41.03,41.21,8.35,18.58,12.58,44.08,12.58,75.79v150.13h-56.75Z"/><path class="cls-1" d="M874.15,1220.62v-257.85h42.97v32c6.41-8.65,14.1-15.89,23.05-21.71,8.95-5.82,20.4-10.18,34.36-13.09,13.95-2.91,31.82-4.36,53.61-4.36,27.01,0,49.02,3.66,66.03,10.97,17.01,7.31,29.55,19.92,37.6,37.83,7.31-11.34,16.12-20.63,26.41-27.86,10.3-7.24,23.24-12.54,38.83-15.89,15.59-3.36,34.8-5.03,57.63-5.03,27.16,0,49.24,3.69,66.25,11.08,17.01,7.39,29.51,19.96,37.49,37.72,7.98,17.76,11.98,42.08,11.98,72.97v143.25h-42.97v-143.25c0-23.58-2.46-41.52-7.39-53.83-4.92-12.31-13.09-20.74-24.51-25.29-11.42-4.55-26.82-6.83-46.22-6.83-38.05,0-65.17,5.6-81.36,16.79-16.19,11.19-24.29,29.47-24.29,54.84v-.23c.15,4.63.22,9.48.22,14.55v143.25h-42.97v-143.25c0-23.58-2.46-41.52-7.39-53.83-4.92-12.31-13.09-20.74-24.51-25.29-11.42-4.55-26.82-6.83-46.22-6.83-38.05,0-65.17,5.6-81.36,16.79-16.19,11.19-24.28,29.47-24.28,54.84v157.57h-42.97Z"/><path class="cls-1" d="M1563.08,1232.43c-31.11,0-57.19-1.65-77.52-4.9-21.58-3.45-38-11.31-48.8-23.35-10.9-12.14-16.42-30.78-16.42-55.41s5.17-43.82,15.37-56.01c10.22-12.21,26.3-20.21,47.81-23.75,20.22-3.33,46.99-5.01,79.57-5.01,26.28,0,48.65.61,66.49,1.81,14.52.98,27.97,2.57,40.12,4.74-.51-15.36-1.74-27.81-3.68-37.09-2.05-9.81-5.79-17.06-11.12-21.54-5.5-4.62-13.97-7.68-25.18-9.07-12.27-1.52-28.89-2.3-49.4-2.3-23.56,0-42.24.52-55.54,1.55-12.67.98-21.82,2.68-27.19,5.04-4.23,1.86-6.76,4.27-7.72,7.37-1.35,4.39-2.04,10.33-2.04,17.67v6.89h-56.75v-6.89c0-17.02,2.42-31.07,7.2-41.76,5.06-11.33,13.74-20.01,25.81-25.78,11.27-5.4,26.7-9.08,45.84-10.94,18.55-1.8,42.24-2.72,70.39-2.72,30.47,0,55.46,2.01,74.27,5.97,19.73,4.16,35.09,11.86,45.64,22.91,10.52,11.01,17.67,26.38,21.26,45.69,3.42,18.39,5.15,42.31,5.15,71.09v130.89h-56.75v-10.58c-3.55,2.06-7.48,3.88-11.78,5.46-9.43,3.46-22,6.03-37.35,7.66-15.02,1.58-34.43,2.39-57.69,2.39ZM1547.84,1112.57c-13.04,0-24.14.3-32.98.89-11.47.77-20.16,2.39-25.83,4.83-4.65,2-7.63,4.95-9.13,9.03-1.87,5.11-2.82,12.33-2.82,21.47s.94,15.74,2.79,20.6c1.47,3.87,4.45,6.69,9.09,8.64,5.67,2.38,14.37,3.93,25.85,4.63,12.07.74,28.3,1.11,48.27,1.11,25.35,0,45.81-.3,60.83-.89,14.44-.56,25.24-2.09,32.09-4.53,5.63-2.01,9.17-4.97,10.8-9.05,2.05-5.12,3.09-12.7,3.09-22.51v-32.81l-106.9-1.26c-5.34-.08-10.39-.12-15.16-.12Z"/><path class="cls-1" d="M1563.08,1225.55c-30.89,0-56.37-1.6-76.44-4.81-20.07-3.21-34.99-10.26-44.77-21.15-9.77-10.89-14.66-27.83-14.66-50.81s4.59-40.62,13.77-51.59c9.18-10.97,23.73-18.09,43.65-21.38,19.92-3.28,46.07-4.92,78.45-4.92,26.26,0,48.27.6,66.03,1.79,17.76,1.2,33.65,3.28,47.67,6.27-.3-19.84-1.64-35.48-4.03-46.89-2.39-11.41-6.86-19.88-13.43-25.4-6.57-5.52-16.15-9.07-28.76-10.63-12.61-1.57-29.36-2.35-50.25-2.35-23.88,0-42.56.52-56.07,1.57-13.51,1.05-23.32,2.91-29.43,5.6-6.12,2.69-9.96,6.57-11.53,11.64-1.57,5.07-2.35,11.64-2.35,19.7h-42.97c0-16.12,2.2-29.1,6.6-38.95,4.4-9.85,11.9-17.31,22.49-22.38,10.59-5.07,25.1-8.51,43.53-10.3,18.43-1.79,41.67-2.69,69.72-2.69,30.14,0,54.42,1.94,72.86,5.82,18.43,3.88,32.46,10.85,42.08,20.93,9.62,10.07,16.12,24.14,19.47,42.19,3.36,18.06,5.04,41.34,5.04,69.83v124h-42.97v-17.68c-5.07,5.37-12.09,9.7-21.04,12.98-8.95,3.28-20.85,5.71-35.7,7.27-14.85,1.57-33.84,2.35-56.96,2.35ZM1563.08,1190.63c25.52,0,45.88-.3,61.1-.89,15.22-.6,26.6-2.24,34.13-4.93,7.53-2.69,12.5-7.01,14.88-12.98,2.38-5.97,3.58-14.32,3.58-25.07v-39.62l-113.7-1.34c-20.14-.3-36.37-.04-48.68.78-12.31.82-21.68,2.61-28.09,5.37-6.42,2.76-10.71,7.09-12.87,12.98-2.16,5.9-3.25,13.84-3.25,23.84s1.08,17.39,3.25,23.05c2.16,5.67,6.45,9.85,12.87,12.53,6.41,2.69,15.78,4.4,28.09,5.15,12.31.75,28.54,1.12,48.68,1.12Z"/><path class="cls-1" d="M1926.8,1232.43c-28.99,0-54.02-1.49-74.4-4.43-21.18-3.06-38.63-9.51-51.87-19.16-13.54-9.87-23.5-24.71-29.6-44.13-5.85-18.63-8.82-43.65-8.82-74.36s2.97-54.19,8.84-72.39c6.1-18.95,16.06-33.52,29.6-43.31,13.23-9.56,30.66-16,51.82-19.14,20.38-3.02,45.42-4.55,74.42-4.55,34.7,0,63.76,2.03,86.37,6.04,23.78,4.22,41.8,13.14,53.55,26.52,11.83,13.47,17.83,33.83,17.83,60.5v6.89h-54.96v-6.89c0-12.75-2.48-22.19-7.36-28.05-4.83-5.79-14.39-9.8-28.42-11.92-15.42-2.32-37.97-3.5-67.01-3.5-26.12,0-47.03,1.11-62.14,3.29-14.09,2.03-24.4,5.88-30.65,11.43-6.08,5.39-10.11,13.8-12,24.98-2.09,12.39-3.15,29.25-3.15,50.11s1.06,39.09,3.16,51.94c1.89,11.65,5.95,20.35,12.04,25.89,6.23,5.67,16.52,9.53,30.57,11.49,15.13,2.11,36.05,3.18,62.17,3.18,22.23,0,40.63-.63,54.68-1.88,13.42-1.19,23.84-3.53,30.97-6.96,6.4-3.08,10.69-7.35,13.09-13.04,2.68-6.35,4.05-15.21,4.05-26.3v-6.89h54.96v6.89c0,20.96-3.25,38.18-9.66,51.17-6.62,13.41-16.85,23.64-30.4,30.42-12.91,6.46-29.47,10.83-49.22,13-19.18,2.11-42.21,3.17-68.46,3.17Z"/><path class="cls-1" d="M1926.8,1225.55c-28.8,0-53.27-1.45-73.41-4.36-20.14-2.91-36.41-8.88-48.79-17.91-12.39-9.02-21.41-22.57-27.08-40.62-5.67-18.05-8.51-42.15-8.51-72.29s2.83-52.67,8.51-70.28c5.67-17.6,14.7-30.89,27.08-39.84,12.38-8.95,28.65-14.92,48.79-17.91,20.14-2.98,44.61-4.48,73.41-4.48,34.47,0,62.86,1.98,85.17,5.93,22.3,3.95,38.83,12.05,49.58,24.28,10.74,12.24,16.12,30.89,16.12,55.96h-41.18c0-14.47-2.99-25.29-8.95-32.46-5.97-7.16-16.86-11.94-32.68-14.32-15.82-2.38-38.5-3.58-68.04-3.58-26.56,0-47.6,1.12-63.12,3.36-15.52,2.24-26.94,6.6-34.24,13.09-7.31,6.49-12.05,16.15-14.21,28.98-2.16,12.84-3.25,29.92-3.25,51.26s1.08,39.77,3.25,53.05c2.16,13.28,6.9,23.24,14.21,29.88,7.31,6.64,18.72,11.05,34.24,13.21,15.52,2.16,36.56,3.25,63.12,3.25,22.53,0,40.96-.63,55.28-1.9,14.32-1.27,25.44-3.81,33.35-7.61,7.91-3.81,13.39-9.32,16.45-16.56,3.06-7.24,4.59-16.9,4.59-28.99h41.18c0,20-2.99,36.04-8.95,48.12-5.97,12.09-15.07,21.19-27.31,27.31-12.24,6.12-27.87,10.22-46.89,12.31-19.02,2.09-41.6,3.13-67.71,3.13Z"/><path class="cls-1" d="M3204.87,1563.05l84.47,134.18s-670.09,67.09-1266.98,374.58c0,0-163.63,99.04-236.5,95.04h-337.86s492.72-366.19,1756.88-603.8Z"/><path class="cls-2" d="M2282.23,1456.85c-1.19-1.48-32.37-5.33-37.59-5.64-624.78-37.16-1270.2,180.56-1804.15,489.79-88.92,51.5-225.65,130.61-299.75,198.3-3.03,2.77-25,24.6-22.27,27.67h21.97c5.18-.18,10.24-.31,14.66,0,.03,0,.07,0,.1,0h366.35c18.98,0,37.43-6.49,52.11-18.52,3.41-2.8,6.99-5.62,10.99-8.28,44.78-29.82,87.43-65.39,132.04-96.01,248.62-170.69,564.25-314,848.83-414.65,231.87-82.01,477.8-108.94,716.74-162.73.78-.96.79-8.91-.02-9.92Z"/><path class="cls-2" d="M837.24,1349.36l-134.7,160.21,10.58,10.58,159.03-156.69c1.57-6.88-28.73-14.31-34.91-14.09Z"/></svg>