<?xml version="1.0" encoding="UTF-8"?><svg id="Layer_1" xmlns="http://www.w3.org/2000/svg" viewBox="0 0 1024 959.23"><defs><style>.cls-1{fill:#d7641d;}</style></defs><path class="cls-1" d="M792.09,929.21c-.7-.29-1.85-.29-2.55,0-.7.29-.13.51,1.28.51s1.98-.22,1.28-.51M797.2,928.19c-.7-.29-1.85-.29-2.55,0-.7.29-.13.51,1.28.51s1.98-.22,1.28-.51M802.31,927.16c-.7-.29-1.85-.29-2.55,0-.7.29-.13.51,1.28.51s1.98-.22,1.28-.51M807.41,926.14c-.7-.29-1.85-.29-2.55,0-.7.29-.13.51,1.28.51s1.98-.22,1.28-.51M871.22,926.2c-.34-.35-1.23-.38-1.96-.08-.82.33-.57.56.62.61,1.07.04,1.67-.19,1.34-.53M815.33,924.77c2.02-.64,2.12-.82.51-.82-1.12,0-3.19.37-4.6.82-2.02.64-2.12.82-.51.82,1.12,0,3.19-.37,4.6-.82M862.56,925.07c-1.27-.23-3.33-.23-4.6,0-1.27.25-.23.45,2.3.45s3.56-.2,2.3-.45M853.37,924.05c-1.27-.23-3.33-.23-4.6,0-1.27.25-.23.45,2.3.45s3.56-.2,2.3-.45M844.19,923.04c-1.26-.25-3.55-.26-5.11-.02-1.55.23-.52.44,2.29.44,2.81.01,4.07-.18,2.82-.42M833.71,921.95c-3.43-.68,4.38-2.51,61.78-14.45,10.67-2.23,36.41-7.71,57.19-12.19,20.78-4.49,39.85-8.61,42.38-9.15,2.53-.54,3.76-1.03,2.75-1.09-1.65-.1-36.25,7.02-66.57,13.68-6.18,1.36-24.78,5.28-41.36,8.7-16.57,3.42-37.25,7.85-45.95,9.83-18.6,4.25-14.74,4.45-69.95-3.77-53.46-7.96-107.7-15.47-108.85-15.08-.59.19,22.05,3.69,50.32,7.76,28.27,4.07,62.19,9.01,75.39,10.97,24.06,3.56,38.12,5.31,42.89,5.3h2.55l-2.55-.51M733.12,915.53c-11.66-2.45-54.84-9.52-74.55-12.2-32.45-4.41-78.88-10.22-80.94-10.13-3.73.16.96.92,21.71,3.48,47.85,5.9,78.83,10.37,109.27,15.76,12.36,2.19,23.85,3.96,25.53,3.96,2.61-.01,2.46-.14-1.02-.87M811.13,908.22c.95.32,1.14.04.6-.83-.52-.85-.4-1.06.34-.61.63.39,3.57.02,6.55-.82,4.95-1.41,88.29-18.27,121.81-24.65,7.86-1.49,17.75-3.06,21.96-3.48l7.66-.77-5.87-.14c-5.55-.13-5.87-.29-5.87-2.7,0-1.93.56-2.58,2.3-2.7l2.3-.13-2.3-.45-2.3-.44v-80.53h11.23c6.81,0,11.23-.4,11.23-1.02s-4.42-1.02-11.23-1.02h-11.24l.14-6.32.14-6.31,2.31,4.52c1.51,2.95,1.94,4.77,1.25,5.2-1.53.95,10.52,1.48,18.54.83,6.29-.52,6.49-.61,3.04-1.37-3.65-.8-3.83-1.1-15.77-25.49-6.65-13.57-21.4-43.51-32.81-66.54-11.41-23.03-20.73-41.93-20.74-42,0-.07,4.48-1.13,9.96-2.36,11.34-2.54,12.97-3.01,12.4-3.57-.39-.39-17.83,2.93-21.59,4.12-1.23.38-1.79,0-1.79-1.21,0-1.64-.13-1.63-2.01.07-3.39,3.06-61.27,14.23-82.34,15.87-7.81.61-25.45,2.25-39.21,3.63-30.41,3.05-131.75,7.37-131.74,5.63,0-.23.8-1.39,1.77-2.55.98-1.16.41-.89-1.28.63-2.41,2.18-4.48,2.9-9.94,3.45l-6.89.71-.22-12.14-.21-12.14-.33,11.96-.32,11.96-3.29.54c-1.81.31-5.13.73-7.37.93-2.25.21-.87.37,3.06.35l7.15-.04-.17,7.58-.16,7.58,1.05-7.91,1.06-7.91,6.26.02c3.44,0,5.77.35,5.17.77-1.12.77-8.15,9.36-12.69,15.54-1.41,1.91-3.73,4.88-5.17,6.6s-5.57,7.03-9.17,11.79c-3.62,4.77-14.61,18.11-24.45,29.64-31.55,36.95-38.01,44.72-37.9,45.57.12.93.55.97,12.09,1.22,7.69.15,8.43.36,8.43,2.22s-.7,2.04-12.51,2.11c-7.95.04-11.76.39-10.47.95,1.12.48,6.75.91,12.51.95l10.47.07v78.6l-5.87-.38c-4.6-.3-4.98-.22-1.79.33q4.03.7,1.02,1.29c-1.71.33-.92.43,1.79.25,4.51-.31,4.85-.16,4.85,2.08,0,1.34-.57,2.66-1.28,2.94-.88.35-.8.54.26.6,4.78.27,75.9,8.39,84.83,9.7,5.86.85,24.44,3.17,41.29,5.15,16.85,1.98,45.1,5.44,62.76,7.69,17.67,2.25,32.72,4.08,33.44,4.08s1.33,1.21,1.35,2.81c.03,2.42.2,2.58,1.28,1.18.68-.89,1.89-1.41,2.67-1.14M657.04,897.16c-3.08-.43-7.23-.76-9.19-.73-3.21.05-3.1.12,1.02.77,2.53.39,6.66.71,9.19.73q4.53.01-1.02-.77M641.98,895.46c-1.27-.23-3.33-.23-4.6,0-1.27.25-.23.45,2.3.45s3.56-.2,2.3-.45M633.3,894.45c-.98-.26-2.59-.26-3.57,0s-.17.47,1.79.47,2.77-.21,1.79-.47M625.13,893.43c-.98-.26-2.59-.26-3.57,0s-.17.47,1.79.47,2.77-.21,1.79-.47M572.79,892.1c-1.69-.43-4.44-.78-6.13-.77-2.95.01-2.93.04.51.77,1.96.42,4.72.76,6.13.77,2.27.01,2.21-.07-.51-.77M617.47,892.44c-.7-.29-1.85-.29-2.55,0-.7.29-.13.51,1.28.51s1.98-.22,1.28-.51M562.34,890.4c-.69-.28-2.07-.3-3.06-.03-.99.26-.43.48,1.26.51,1.69.02,2.5-.19,1.81-.48M555.18,889.34c-1.26-.25-3.55-.26-5.11-.02-1.55.23-.52.44,2.29.44,2.81.01,4.07-.18,2.82-.42M532.78,877.21c13.58-.88,28.14-2.01,32.35-2.5l7.66-.89-9.19.45c-13.21.64-57.74,3.51-60.76,3.91-7.23.96,8.01.46,29.94-.97M976.43,876.07c-.97-.26-2.81-.27-4.08-.02-1.27.25-.47.46,1.78.47s3.29-.19,2.31-.45M983.57,875.05c-.98-.26-2.59-.26-3.57,0s-.17.47,1.79.47,2.77-.21,1.79-.47M990.23,874.06c-.69-.28-2.07-.3-3.06-.03-.99.26-.43.48,1.26.51,1.69.02,2.5-.19,1.81-.48M568.96,869.91c-1.54-.23-4.07-.23-5.62,0-1.54.23-.28.43,2.81.43s4.35-.19,2.81-.43M555.43,868.56c-2.81-.43-6.72-.77-8.68-.73-3.23.05-3.12.13,1.02.78,2.53.39,6.43.73,8.68.74,3.86.01,3.81-.03-1.02-.79M537.05,866.57c-10.71-1.34-22.45-2.2-21.84-1.58.7.69,16.94,2.33,23.38,2.34,4.06.01,3.88-.08-1.53-.76M552.62,785.13c-4.35-.19-11.48-.19-15.83,0-4.35.18-.79.35,7.91.35s12.26-.16,7.91-.35M469.19,718.44c2.39-2.39,2.04-4.85-1.39-9.65-2.1-2.95-2.2-4.29-2.58-37.02-.39-32.61-.33-33.96,1.5-33.97,2.15-.01,31.68-3.4,75.44-8.68,16.29-1.96,49.61-5.85,74.04-8.64,24.43-2.79,53.85-6.21,65.36-7.6,11.51-1.4,30.81-3.71,42.89-5.15,12.08-1.43,23.68-2.88,25.79-3.21l3.83-.6.21,9.54.21,9.54.33-9.34.34-9.33,3.29-.54c1.8-.31,11.98-1.58,22.62-2.86,10.63-1.27,18.8-2.48,18.14-2.71-1.01-.34-28.15,2.69-40.29,4.48l-3.83.57v-7.59l12.51.43c6.88.22,11.64.23,10.57.02-1.55-.33-1.65-.58-.51-1.34.91-.6-.46-.71-3.77-.31l-5.21.65.48-3.22.47-3.21,5.75.55c3.17.31,10.8,1,16.98,1.53,6.18.54,18.97,1.72,28.43,2.62,9.46.91,17.4,1.44,17.66,1.18.27-.26-2.42-.75-5.95-1.08-18.41-1.78-51.13-4.87-56.73-5.36l-6.38-.56v-9.03l4.85-.18,4.85-.18-4.85-.39-4.85-.38v-100.64l5.87.27c5.57.27,5.12.05-2.55-1.19l-3.32-.53v-33.66c0-25.18.31-33.65,1.21-33.65.66,0,8.53,1.41,17.47,3.12,8.95,1.72,16.47,2.91,16.72,2.67s-7.61-1.97-17.47-3.82l-17.92-3.37v-39.64c0-21.79.22-39.63.5-39.63s6.76,1.64,14.4,3.66c7.63,2,14.09,3.44,14.35,3.19s-.83-.78-2.39-1.15c-1.57-.38-8.26-2.1-14.86-3.83l-12-3.15v-4.53c0-3.83.28-4.45,1.79-3.99,5.61,1.66,7.34,1.43,2.81-.38-4.62-1.85-4.76-2-1.53-1.58l3.57.47-3.32-1.13-3.32-1.13v-19.76c0-15.09.31-19.79,1.28-19.85,1.02-.06,1.02-.18,0-.59-.7-.29-1.28-2.08-1.28-4,0-2.09.51-3.5,1.28-3.52.7-.02,7.31-1.33,14.7-2.92l13.42-2.89,5.98,7.64c8.53,10.88,11.51,14.95,11.56,15.77.02.4-1.69,1.01-3.79,1.37-2.1.35-5.89,1.27-8.43,2.02-2.53.77-10.31,2.61-17.31,4.11-7,1.5-13.65,3.15-14.81,3.65-2.99,1.32,2.05.38,20.88-3.86,8.7-1.96,16.5-3.6,17.32-3.66.82-.04,2.64-.68,4.06-1.43,2.77-1.43,4.68-.47,5.35,2.69.18.83,1.31,2.31,2.5,3.29,1.19.99,3.12,3.81,4.28,6.28,2.43,5.16,4.52,6.38,6.88,4.03,1.65-1.66,1.63-6.06-.06-11.28-.63-1.94-.38-2.3,1.66-2.32,1.34,0,3.1-.5,3.95-1.09,1.14-.81.59-.93-2.18-.47-2.9.48-3.86.23-4.37-1.09-.83-2.15.25-3.34,1.38-1.51.47.76,1.34,1.21,1.94.99,1.03-.36-31.14-45.98-54.85-77.82-5.79-7.77-10.27-14.38-9.96-14.69.31-.32,6.43,1.53,13.62,4.11,19.19,6.86,22.9,8.06,23.43,7.52.27-.27-1.27-1.03-3.41-1.72-2.14-.67-10.47-3.53-18.5-6.35-8.03-2.82-14.86-4.86-15.18-4.54-.81.82-2.98-1.96-21.8-27.9-9.18-12.64-24.09-32.86-33.16-44.93-38.93-51.88-54.79-74.57-53.38-76.34.68-.87.65-1.28-.11-1.28-.61,0-18.25,8.64-39.18,19.2-20.93,10.56-46.11,23.05-55.93,27.76s-24.08,11.53-31.66,15.17-14.93,6.6-16.34,6.57c-2.4-.03-51.96-15.12-52.96-16.11-.25-.26,2.26-1.65,5.58-3.11,5.75-2.53,8.73-3.89,25.69-11.65,4.08-1.87,7.24-3.57,7.03-3.79-.21-.21-6.44,2.38-13.85,5.77s-13.65,6.17-13.9,6.17-3.28,1.37-6.74,3.04l-6.29,3.05-15.93-5.11-15.94-5.1.11-17.61.11-17.61-.99,17.51-.99,17.51-3.21-.96c-16.05-4.79-35.68-10.11-36.03-9.76-.23.23,4.06,1.66,9.56,3.18,5.49,1.52,14.47,4.13,19.94,5.81l9.96,3.05.15,10.67c.08,5.87.2,11.19.26,11.82.05.62-13.92,7.51-31.04,15.29l-31.15,14.16-.53-31.89-.53-31.88-.49,20.93c-.27,11.52-.42,26.01-.33,32.21l.17,11.27-24.17,11.11c-48,22.07-61.49,28.41-61.14,28.76.18.19,7.43-2.91,16.1-6.88,8.67-3.98,23.12-10.59,32.11-14.69,8.99-4.11,20.87-9.57,26.42-12.15,5.56-2.58,10.27-4.7,10.5-4.7s.28,7.67.12,17.03l-.28,17.03-25.6,11.3c-14.07,6.22-34.99,15.41-46.47,20.42-11.47,5.02-28.84,12.72-38.58,17.11-9.74,4.39-17.88,7.99-18.1,7.99s-.52-7.01-.69-15.57l-.32-15.57-.22,15.96-.22,15.97-5.36,2.53c-2.95,1.4-7.79,3.57-10.75,4.85s-5.22,2.5-5,2.72c.47.47,18.02-6.7,19.84-8.11.95-.74,1.28-.3,1.28,1.7,0,1.47-.46,2.68-1.02,2.68-1.41,0-24.65,10.42-24.21,10.86.19.19,5.76-1.99,12.35-4.85,6.6-2.86,12.15-5.03,12.36-4.83.2.2.52,3.08.7,6.4l.34,6.04-6.13,2.48c-11.65,4.72-13.08,5.38-12.61,5.84.26.27,3.66-.83,7.56-2.41,3.9-1.59,8.13-3.22,9.4-3.62l2.3-.73.22,17.17.22,17.18.32-15.17c.26-12.27.57-15.05,1.7-14.62.77.3,10.64,2.03,21.94,3.86l20.54,3.32v12.58c0,11.29-.18,12.58-1.79,12.6-.98,0-2.48.49-3.32,1.08-1.14.79-.68.9,1.79.41,3.25-.64,3.32-.57,3.32,3,0,2.94-.39,3.66-1.98,3.66-1.09,0-2.23.39-2.52.88-.3.48.59.65,1.98.39l2.52-.48v39.78l-9.83,2.91c-5.41,1.59-9.38,3.05-8.83,3.24.55.18,4.64-.83,9.07-2.24,4.44-1.42,8.53-2.58,9.09-2.59.63,0,1.06,6.33,1.13,16.79l.11,16.8-9.81,2.18c-5.4,1.19-16.79,3.97-25.31,6.18-8.53,2.2-15.8,4-16.16,4s-.59-3.79-.51-8.43c.18-11.62.15-11.88-1.11-9.7-.9,1.54-2.71,1.79-13.39,1.79h-12.34l.64-4.74c.36-2.6.65-6.74.65-9.19v-4.45l8.43-.2,8.43-.21-8.43-.34-8.43-.35-.22-13.49-.22-13.49-.32,13.53-.32,13.53h-13.5c-7.42,0-25.56-.31-40.31-.67l-26.81-.67-.18-12.35c-.1-6.79-.33-10.05-.5-7.24-.16,2.81-.58,8.43-.92,12.49l-.61,7.38-14.46-.46c-17.49-.55-16.46.12,1.61,1.05l13.02.67v19.2H55.54l-.16-20.68-.16-20.68-.73,20.16c-.49,13.73-1.12,20.64-2,21.7-1.04,1.25-1.01,1.54.12,1.54,1.85-.01,1.39,16.31-.47,16.39-.65.03-6.93.08-13.96.11-14.69.07-13.73.48,3.32,1.42l12,.66v7.56c0,7.53-.01,7.56-2.81,7.71l-2.81.15,2.69.41c2.35.37,2.75,1,3.25,5.21.31,2.64.29,24.91-.04,49.48l-.6,44.68-14.9.17-14.9.17,15.06.99,15.06,1v18.09h151.14l.17,3.83.17,3.83.4-3.83.4-3.83h34.6v42.01l-5.87-.52-5.87-.53,5.87,1.08,5.87,1.08v12.22l-7.4-.7c-4.07-.39-12.43-1.36-18.58-2.14-6.14-.8-12.35-1.39-13.79-1.32-2.88.13,20.36,3.34,32.27,4.45,6.96.65,7.5.88,7.5,3.08,0,2.89,1.83,2.58-37.27,6.3-16.29,1.55-28.83,2.97-27.88,3.18,1.43.29,44.58-3.51,60.81-5.37l4.34-.49v13.38l-8.43-.52-8.43-.51,8.43,1.05,8.43,1.06.17,4.75.18,4.75.39-4.34c.34-3.76.71-4.34,2.79-4.34,4.12,0,47.26,6.04,64.38,9.02l16.34,2.83.57,9.65.57,9.65.19-9.45c.1-5.2.56-9.45,1.01-9.45s10.21,1.54,21.7,3.43c11.49,1.89,26.57,4.28,33.53,5.3l12.64,1.87-.47,33.85c-.41,29.46-.69,34.17-2.18,36.28-1.99,2.84-2.25,8.18-.48,9.95,2.82,2.82,8.99-.02,8.99-4.14,0-2.25-3.08-7.91-4.31-7.91-.44,0-.8-15.16-.8-33.7v-33.7l2.3.02c1.27.01,6.66.68,12,1.51,10.69,1.64,11.79,1.76,11.1,1.05-.27-.26-5.05-1.18-10.64-2.05-16.12-2.5-14.76-1.7-14.76-8.72,0-5.35.25-6.11,1.97-6.11,1.08,0,16.33,2.06,33.88,4.6,17.55,2.53,32.07,4.6,32.24,4.6.18,0,.33,3.64.33,8.09,0,9.53,2.98,8.06-23.9,11.81-10.06,1.4-18.57,2.83-18.89,3.17-.34.34,1.45.33,3.98-.03,2.53-.36,12.3-1.7,21.7-2.98l17.11-2.33-.02,34.28c-.02,32.46-.13,34.43-2.02,36.85-2.53,3.24-2.68,8.72-.26,10.13,2.77,1.61,5.17,1.3,7.45-.99M805.88,597.28c-.98-.26-2.59-.26-3.57,0s-.17.47,1.79.47,2.77-.21,1.79-.47M848.77,595.24c-.98-.26-2.59-.26-3.57,0s-.17.47,1.79.47,2.77-.21,1.79-.47M842.65,592.18c-.97-.26-2.81-.27-4.08-.02-1.27.25-.47.46,1.78.47s3.29-.19,2.31-.45M796.94,576.54c3.83-.56,2.04-.64-5.62-.28-6.18.3-11.43.71-11.66.92-.75.66,11.45.2,17.28-.64M196.22,574.81c-.98-.26-2.59-.26-3.57,0s-.18.47,1.79.47,2.77-.21,1.79-.47M817.31,548.3c.25-.22-10.21-.37-23.23-.32-15.42.05-23.68.45-23.68,1.13,0,.98,45.79.19,46.91-.82M52.48,523.69c-.01-.42-4.03-.9-8.94-1.06-6.32-.2-8.49.02-7.4.76,1.76,1.19,16.34,1.47,16.34.31M782.92,465.58c-.69-.28-2.07-.3-3.06-.03-.99.26-.43.48,1.26.51,1.69.02,2.5-.19,1.81-.48M776.28,464.52c-.97-.26-2.81-.27-4.08-.02-1.27.25-.47.46,1.78.47s3.29-.19,2.31-.45M43.58,403.21c-2.37-.21-6.51-.21-9.19-.01-2.69.21-.75.39,4.31.4,5.06,0,7.25-.17,4.88-.39M39.5,372.56c-2.93-.2-7.99-.2-11.23,0-3.26.2-.86.37,5.32.38,6.18,0,8.83-.16,5.91-.38M806.88,335.94c-.34-.35-1.23-.38-1.96-.08-.82.33-.57.56.62.61,1.07.04,1.67-.19,1.34-.53M802.8,334.92c-.34-.35-1.23-.38-1.96-.08-.82.33-.57.56.62.61,1.07.04,1.67-.19,1.34-.53M787.75,321.32c-.85-.48-3.15-1.13-5.11-1.46q-3.54-.58.51.83c4.67,1.62,6.84,1.92,4.6.63M817.88,288.56c-.35-.56-1.41-.99-2.36-.95-1.41.06-1.35.23.32.95,2.74,1.17,2.77,1.17,2.04,0M806,285.02c-.73-.71-31.87-10.75-33.06-10.65-1.19.11,29.95,10.77,32.09,10.99.8.08,1.23-.07.97-.34M836.77,214.11c-2.52-1.41-26.71-9.47-27.14-9.04-.22.22,5.68,2.52,13.11,5.11,13.07,4.55,17.23,5.72,14.03,3.93M511,73.08c1.97-1.07,3.11-1.96,2.55-1.96s-2.62.89-4.6,1.96-3.11,1.96-2.55,1.96,2.62-.89,4.6-1.96M519.17,69.51c1.41-.81,2.09-1.46,1.53-1.46s-2.16.65-3.57,1.46-2.09,1.46-1.53,1.46,2.16-.65,3.57-1.46M809.2,902.01v-3.35l23.23-3.88c12.78-2.13,44.6-7.73,70.72-12.44s48.98-8.82,50.81-9.15c2.81-.5,3.32-.29,3.32,1.39,0,1.77-2.21,2.4-20.17,5.8-11.09,2.09-43.67,8.58-72.39,14.4-28.72,5.82-52.96,10.59-53.87,10.59-1.17,0-1.64-.95-1.64-3.36M774.99,900.22c-16.29-2.15-39.95-5.12-52.59-6.59s-33.09-4-45.44-5.63-35.57-4.36-51.57-6.09c-16-1.72-31.51-3.41-34.47-3.75-4.35-.5-5.36-.97-5.36-2.54,0-1.05.46-1.92,1.01-1.92,3.22,0,58.9,6.55,70.47,8.28,7.58,1.14,18.84,2.74,25.01,3.53,15.22,1.98,17.88,2.53,17.88,3.74,0,.6.62.52,1.5-.2,1.65-1.38,24.19.6,68.96,6.06,13.19,1.6,26.87,3.24,30.38,3.63,5.86.64,6.38.9,6.38,3.16,0,1.35-.57,2.4-1.28,2.34s-14.6-1.87-30.89-4.01M792.86,896.49c-1.96-.22-14.83-1.74-28.59-3.38s-32.15-3.69-40.85-4.55c-8.7-.86-17.32-1.81-19.15-2.11l-3.32-.56v-38.51s-.01-38.5-.01-38.5l-14.25-.36-14.25-.36-.07,37.06c-.03,20.38-.18,37.17-.33,37.33-.14.14-6.69-.68-14.53-1.83-7.84-1.14-27.01-3.53-42.59-5.31l-28.33-3.22-.3-39.57-.3-39.57h18.41c18.01.01,68.31,1.57,148.11,4.6,21.91.84,43.28,1.52,47.49,1.52h7.66v23.75c0,13.06-.11,35.12-.26,49.02l-.26,25.28-5.36-.16c-2.95-.09-6.97-.34-8.94-.55M777.54,862.48c0-.56-1.03-1.04-2.3-1.06-2.08-.03-40.08-2.85-40.08-2.97,0-.03.13-10.65.3-23.61l.29-23.56,9.42.7c5.17.4,9.6.89,9.83,1.1.23.2-3.56.38-8.43.38h-8.85v43.55l16.08,1.21c8.84.65,17.36,1.19,18.91,1.19h2.83l-.28-24.25-.28-24.25-20.37-.73c-11.21-.41-20.51-.61-20.65-.46-.15.14-.32,11.73-.38,25.74l-.1,25.48,15.13,1.12c20.56,1.52,28.92,1.64,28.92.41M641.72,850.36c0-.89-15.26-3.2-21.13-3.2-1.72,0-4.56-.29-6.32-.63l-3.19-.64v-38.04l13.79.31c7.58.17,13.79.63,13.79,1.02s-5.74.55-12.77.36l-12.77-.37v17.41c0,9.57.4,17.66.89,17.95.5.31,5.43,1.04,10.98,1.62,5.56.59,11.37,1.33,12.93,1.64l2.84.56-.1-21.02-.11-21.03h-31.5v19.83c0,14.93-.32,19.94-1.28,20.29-1.74.63,3.64,1.61,17.62,3.21,15.16,1.73,16.34,1.78,16.34.71M809.67,848.15l.04-48.99h4.45c3.65,0,4.33-.3,3.82-1.62-.41-1.07,6.9-12.5,21.6-33.74,33.76-48.81,40.56-58.52,55.45-79.18,7.56-10.49,14.27-19.9,14.92-20.93,1.28-2.01,2.35.05,24.77,47.56,5.15,10.89,15.5,31.91,23.01,46.72l13.65,26.91h-6.53l-22.62-45.7c-12.45-25.13-25.15-51.1-28.24-57.7s-5.86-12-6.17-12c-1.49,0,11.36,27.6,32.57,69.95l17.38,34.72-.51,48.5-.51,48.49-46.47,8.36c-25.55,4.61-57.72,10.25-71.48,12.54-13.77,2.3-25.96,4.38-27.1,4.64-2.07.46-2.08.26-2.04-48.52M859.75,859.42c5.06-.61,12.05-1.59,15.55-2.19,5.71-.97,6.32-1.31,5.94-3.28-.22-1.21-.44-12.49-.49-25.06l-.07-22.86-15.55.75c-8.56.4-15.88.94-16.28,1.17-.4.25-.74,11.58-.76,25.18-.02,16.03-.4,24.86-1.08,25.08-.58.19-1.05,1.01-1.05,1.82,0,.99.76,1.31,2.3.98,1.27-.27,6.43-.98,11.49-1.59M923.57,850.17c7.03-.69,13.45-1.63,14.3-2.1.85-.47,1.07-.86.51-.88-.63-.02-1.14-8.37-1.36-22.24-.18-12.21-.54-22.41-.79-22.65-.73-.73-25.8,1.48-26.66,2.35-.78.78-2.21,46.4-1.47,47.13.19.19.88.19,1.53,0,.64-.19,6.91-.91,13.94-1.6M913.02,758.65c-1.27-1.27-29.27-1.7-29.27-.45,0,.78,4.67,1.13,14.98,1.13,8.23,0,14.66-.31,14.29-.68M910.3,736.33v-19.94l-12.25.29c-6.75.15-12.26.63-12.25,1.05v38.55h24.51v-19.94M684.1,884.56l-9.19-1.14-.27-36.51-.28-36.51h7.42c4.07.01,9.8.31,12.72.65l5.32.64.07,37.13c.06,32.75-.12,37.14-1.5,37.14s-1.5-3.92-.91-35.09c.49-25.7.36-35.27-.49-35.8-.86-.52-1.16,8.64-1.16,35.09,0,28.03-.28,35.77-1.28,35.67-.7-.07-5.41-.65-10.47-1.28M690.48,883.22c-.98-.26-2.59-.26-3.57,0s-.17.47,1.79.47,2.77-.21,1.79-.47M681.8,882.23c-.7-.29-1.85-.29-2.55,0-.7.29-.13.51,1.28.51s1.98-.22,1.28-.51M687.94,813.33c8.64-.1,9.66-.27,5.86-.94-2.53-.45-7.47-.86-10.98-.9l-6.38-.07.25,35.49.23,35.49.29-34.47.29-34.47,10.45-.13M690.99,815.78c-2.39-.21-6.29-.21-8.68,0-2.39.21-.43.39,4.34.39s6.73-.17,4.34-.39M788.26,796.43c-56.61-1.72-139.58-4.49-146.03-4.9-4.49-.28-19.09-.51-32.42-.52-23.57-.01-24.25-.07-24.25-2.05,0-1.87.67-2.04,7.91-2.03,11.02.02,121.74,2.89,136.08,3.52,22.35,1,36.34,1.53,58,2.21,18.3.58,21.66.92,21.19,2.15-.31.81-.56,1.65-.56,1.89s-2.41.34-5.36.21c-2.95-.11-9.5-.33-14.55-.48M810.22,796.11c0-.37,1.88-3.16,4.19-6.21,6.79-9,27.5-38.28,36.43-51.5,7.74-11.46,29.62-43.29,50.78-73.92,5.06-7.31,9.65-13.16,10.2-13.01.56.16,1.79,1.86,2.73,3.78.93,1.92,15.62,31.52,32.64,65.79,17.02,34.26,31.13,62.67,31.35,63.14.22.46-.91.69-2.51.51-2.74-.32-3.93-2.35-18.81-31.99-8.73-17.41-22.52-45.78-30.64-63.03-8.11-17.26-15.04-31.39-15.4-31.4-.36-.02-3.99,4.91-8.08,10.95-4.1,6.04-11.85,17.17-17.23,24.72-13.13,18.45-45.34,65.1-58.99,85.43-9.09,13.53-11.55,16.53-13.86,16.92-1.54.27-2.81.17-2.81-.18M776.64,790.05l-10.61-.58,4.21-5.11c6.76-8.21,32.43-43.47,35.31-48.51,2.5-4.35-2.38,2.01-12.13,15.83-12.18,17.27-18.14,25.31-24.11,32.57l-4.11,4.98-16.5-.2c-9.08-.11-16.76-.36-17.06-.55-.31-.18-11.82-.62-25.58-.96-13.77-.34-33.29-.84-43.4-1.11-10.11-.27-35.39-.78-56.17-1.13-20.78-.36-37.94-.78-38.11-.94-.39-.34,49.5-60.51,57.32-69.14,2.91-3.22,5.3-6.29,5.3-6.84s.66-1.59,1.48-2.32c1.3-1.15,1.3-1.07.02.71-1.45,2.02-1.44,2.02.82.1,2.33-2,3.08-3.28,1.26-2.14-.56.35-1.02.2-1.02-.33,0-1.27,2.59-3.38,3.29-2.69.31.31,2.03-1.42,3.83-3.83l3.29-4.39-3.66,4.08c-2.01,2.25-3.67,3.69-3.68,3.21-.02-1.27,11.81-16.77,16.68-21.84l4.17-4.34h16.51c27.08,0,82.4-1.97,101.01-3.6,9.55-.84,24.02-2.16,32.17-2.95,8.15-.8,18.72-1.75,23.49-2.12,11.23-.88,39.03-5.59,59.7-10.12,8.97-1.96,16.46-3.42,16.65-3.23.19.19-2.58,4.42-6.17,9.4-3.57,4.98-13.87,19.86-22.86,33.06-9,13.19-19.68,28.83-23.74,34.72-4.05,5.89-9.88,14.4-12.92,18.89-3.05,4.49-10.98,15.75-17.63,25.02l-12.07,16.85-12.18.07c-6.69.04-16.94-.19-22.77-.51M820.43,753.95c21.83-30.14,29.89-41.58,29.28-41.58-.27,0-3.21,3.79-6.54,8.43s-14.4,20.04-24.6,34.22-19.7,27.61-21.11,29.85c-4.32,6.83-2.84,5.95,1.78-1.06,2.39-3.63,11.93-17.05,21.19-29.85M794.81,770.61c5.28-7.61,13.35-19.34,17.93-26.08,4.59-6.74,12.4-17.99,17.37-25.02,12.53-17.7,12.99-18.38,12.43-18.38-.52,0-19.36,26.45-31.81,44.65-22.31,32.64-27.82,40.78-28.47,42.16-.95,1.99.94-.6,12.55-17.32M741.28,761.38c1.71-3.06-.04-.88-14.62,18.38-2.34,3.08-4.25,5.97-4.26,6.41,0,.8,17.25-21.86,18.88-24.8M748,775.42c4.05-5.76,8.51-11.96,9.9-13.79s2.29-3.32,1.99-3.32c-.54,0-6.77,8.32-15.46,20.68-2.67,3.79-4.61,6.89-4.32,6.89s3.84-4.71,7.89-10.47M646.55,775.42c7.68-10.3,8.82-12,8.07-12-.28,0-3.05,3.56-6.18,7.91-3.11,4.35-6.63,9.18-7.81,10.72-1.17,1.54-1.91,2.81-1.62,2.81s3.68-4.25,7.55-9.45M664.14,770.23c5.18-6.65,9.24-12.26,9.03-12.47-.33-.34-16.25,19.87-20.11,25.52-3.34,4.9,2.01-1.41,11.08-13.05M670.22,780.02c2.51-3.68,2.67-4.11.63-1.79-2.71,3.08-5.01,6.64-4.32,6.64.2,0,1.86-2.19,3.69-4.85M689.9,773.63c15.99-20.82,32.5-43.01,31.58-42.44-.55.34-7.12,8.69-14.59,18.57-7.48,9.86-15.58,20.54-18.01,23.71-2.44,3.18-5.38,7.16-6.55,8.84-3.63,5.26.61.4,7.58-8.68M758.27,783.08c1.27-1.62,1.24-1.65-.39-.39-.98.78-1.79,1.57-1.79,1.79,0,.85.84.31,2.18-1.4M591.74,774.5c3.57-4.63,6.05-8.12,5.48-7.78-.55.35-3.94,4.41-7.53,9.04-3.58,4.63-6.06,8.13-5.49,7.77.57-.35,3.96-4.41,7.54-9.03M610.04,768.53c12.66-16.52,13.63-17.88,9.93-13.85-3.17,3.45-20.26,25.71-21.61,28.14-1.54,2.79.91-.21,11.68-14.3M616.3,777.72c5.23-6.7,13.42-18.38,12.88-18.38-.48,0-16.03,20.82-17.53,23.49-1.18,2.1.3.48,4.66-5.11M627.56,782.06c1.27-1.62,1.24-1.65-.39-.39-.98.78-1.79,1.57-1.79,1.79,0,.85.84.31,2.18-1.4M707.31,770.83c10.99-14.91,27.42-38.43,29.3-41.96.69-1.31,1-2.64.67-2.97s-.59-.09-.59.53c0,1.55-25.48,38.29-37.35,53.85-1.5,1.97-2.48,3.57-2.18,3.57s4.86-5.86,10.14-13.02M726.13,762.71c5.81-8.2,10.54-15.18,10.51-15.51-.03-.35-.84.51-1.79,1.89-.96,1.38-5.43,7.59-9.96,13.79-4.52,6.2-9.25,13.11-10.53,15.36-2.75,4.87-1.91,3.76,11.76-15.52M763.66,774.91c2.07-3.23,2.7-4.62,1.39-3.08-2.57,3.03-6.27,8.96-5.59,8.96.23,0,2.12-2.64,4.2-5.87M632.53,775.68c1.78-2.25,3-4.08,2.73-4.08s-1.97,1.84-3.75,4.08-3,4.08-2.73,4.08,1.97-1.84,3.75-4.08M703.06,736.36c22.13-29.53,33.53-44.33,44.42-57.7,2.36-2.9,1.62-2.34-1.99,1.53-3.16,3.37-10.43,12.34-16.15,19.91-31.13,41.25-52.61,69.87-54.28,72.31-5.81,8.51,6.11-6.85,27.99-36.06M639.7,766.46c3.08-4.33,1.8-3.76-1.61.71-1.57,2.06-2.34,3.43-1.71,3.03.64-.39,2.13-2.08,3.32-3.75M616.98,742.2c7.52-9.94,12.09-15.16,12.57-14.39.48.79,2.51-1.52,5.58-6.34,15.46-24.34,14.95-23.69,16.79-21.68,20.22,22.15,21.6,23.8,19.8,23.78-1.12-.01-5.61-4.21-10.91-10.21-4.95-5.61-9.34-10.19-9.76-10.19s-1.49,1.51-2.38,3.36c-2.54,5.34-10.54,17.32-13.6,20.38-1.95,1.95-2.34,2.81-1.27,2.81.85,0,2.12-.68,2.82-1.53,2.77-3.34,3.21-1.3,2.88,13.53l-.33,15.06,13.28-.07c7.3-.05,15.67-.16,18.6-.26l5.32-.18,11.53-16.29c6.34-8.97,12.1-16.32,12.81-16.34,1.55-.06,1.61-.6,1.71-15.43l.08-11.81,7.5-9.51c4.13-5.22,7.06-9.22,6.52-8.89-.53.34-3.68,3.94-6.99,8.03-9.9,12.22-6.62,11.2-33.58,10.45-12.92-.36-23.64-1.06-23.82-1.57-.19-.51-1.26-.93-2.36-.93-1.16,0-1.74.46-1.35,1.08.37.6,0,1.87-.81,2.81-.82.95-5.07,7.79-9.44,15.21-4.38,7.41-8.43,13.39-8.99,13.28-.56-.11-5.43,5.61-10.84,12.7-5.39,7.1-12.24,16.06-15.23,19.91-2.99,3.87-3.75,5.18-1.69,2.92,2.06-2.25,9.06-11.11,15.55-19.69M657.17,760.61c1.27-1.62,1.24-1.65-.39-.39-.98.78-1.79,1.57-1.79,1.79,0,.85.84.31,2.18-1.4M746.02,758.57c1.27-1.62,1.24-1.65-.39-.39-.98.78-1.79,1.57-1.79,1.79,0,.85.84.31,2.18-1.4M783.96,753.91c1.1-2.86,25.42-32.35,26.67-32.35.98,0,1.61-3.75,2.4-14.04l1.06-14.04-.37,13.28c-.22,8.23-.03,12.31.51,10.72.48-1.41.93-6.23.99-10.72.15-10.18.73-12.38,3.5-13.33,2.04-.69,2-.78-.66-1.18-2.5-.39-2.71-.65-1.53-2.09.81-1,.12-.79-1.73.54-3.04,2.19-3.25,2.2-28.08,1.11-21.91-.95-25.26-1.32-26.96-2.95-1.9-1.82-1.82-2.01,3.39-8.83,5.03-6.58,3.78-5.47-3.75,3.28-1.83,2.12-3.32,4.06-3.32,4.31,0,.68-20.24,25.78-24.5,30.38-2.08,2.25-5.07,5.92-6.62,8.17l-2.84,4.08,2.94-3.31c1.98-2.24,3.59-3.16,4.97-2.85,1.12.26,4.02.65,6.44.89,3.43.33,4.28.11,3.86-.98-.3-.78-.17-1.41.27-1.41s4.41-5.07,8.81-11.26c4.39-6.2,8.41-11.13,8.94-10.96s4.56,4.68,8.98,10l8.04,9.67-13.67.29-13.68.29-.31,15.29-.31,15.29,4.08.1c2.25.06,5.23.51,6.64,1.01,2.19.77,2.05.83-.9.41-1.89-.28-6.48-.5-10.21-.5h-6.76l.22-12.77c.14-7.97-.16-12.77-.8-12.77s-.91,5-.74,13.5l.29,13.5,10.72.34c5.89.19,11.18.51,11.74.71.56.21,5.68.42,11.38.46,7.71.06,10.5-.27,10.88-1.27M633.6,738.15c5.55-7.67,2.53-4.63-4.04,4.08-3.5,4.64-4.73,6.59-2.73,4.34,1.99-2.25,5.04-6.04,6.77-8.43M808.68,731.13c.96-1.48,1.25-2.37.63-1.99-1.18.74-3.55,4.67-2.82,4.67.23,0,1.22-1.21,2.19-2.68M813.38,724.43c.82-1.51.82-1.91.02-1.41-.62.38-1.63,1.63-2.25,2.8-.82,1.51-.82,1.91-.02,1.41.62-.38,1.63-1.63,2.25-2.8M713.81,704.45c4.94-6.6,10.31-13.73,11.94-15.83,1.62-2.1,2.69-3.83,2.36-3.83s-5.47,6.55-11.45,14.55c-5.96,8.01-11.32,15.12-11.88,15.83s-.78,1.28-.48,1.28,4.56-5.4,9.51-12M830.87,693.29c4.9-6.96,8.49-12.41,7.97-12.08-.79.48-8.24,10.65-14.32,19.52-7.78,11.37-8.25,12.11-5.42,8.69,1.58-1.9,6.87-9.15,11.77-16.12M855.11,705.63c1.92-2.68,2.95-4.52,2.29-4.12-.66.41-2.66,2.85-4.43,5.44-4.21,6.12-2.4,4.99,2.14-1.33M852.85,687.09c11.81-16.84,18.3-26.69,16.34-24.76-.85.85-3.58,4.51-6.08,8.17-2.48,3.66-8.08,11.81-12.44,18.13-4.35,6.32-7.7,11.49-7.43,11.49s4.6-5.86,9.61-13.02M872.25,681.47c13.98-19.79,14.92-21.19,14.26-21.19-.22,0-2.41,2.87-4.85,6.38s-8.39,11.9-13.21,18.64c-9.79,13.66-10.55,14.81-9.85,14.81.28,0,6.41-8.38,13.66-18.64M664.7,687.83l6.13-6.62-6.38,6.1c-3.51,3.35-6.38,6.53-6.38,7.07s.11.76.26.51,3.01-3.42,6.38-7.06M648,688.66c1.26-1.77,1.77-2.89,1.11-2.49-.64.4-2.21,2.18-3.46,3.94-1.26,1.77-1.77,2.89-1.11,2.49.64-.4,2.21-2.18,3.46-3.94M682.14,685.52c2.63-3.49,5.24-6.92,5.8-7.63.55-.7.78-1.28.49-1.28s-3.36,3.73-6.84,8.28c-3.48,4.55-5.85,7.99-5.28,7.63.58-.36,3.21-3.51,5.83-7.01M779.02,680.64c.59-.88-.87.5-3.25,3.06-2.38,2.56-4.33,5.01-4.34,5.45-.02.8,5.47-5.38,7.59-8.52M798.06,675.09c5.87-8.43,2.74-5-5.63,6.13-3.8,5.06-5.04,7.13-2.78,4.6,2.27-2.53,6.06-7.35,8.4-10.72M825.55,677.64c3.54-4.77,6.89-9.25,7.43-9.96.53-.7.71-1.28.39-1.28-.57,0-13.74,17.41-15.44,20.42-1.61,2.86,1.05-.35,7.62-9.19M810.88,677.64c4.89-6.34,8.48-11.86,5.28-8.12-2.66,3.11-10.7,13.77-11.53,15.27-1.3,2.36.53.27,6.25-7.15M652.98,681.66c1.55-2.9.49-2.42-1.55.69-.96,1.48-1.25,2.37-.63,1.99.61-.39,1.6-1.59,2.19-2.69M732.61,679.68c1.78-2.25,3-4.08,2.73-4.08s-1.97,1.84-3.75,4.08-3,4.08-2.73,4.08,1.97-1.84,3.75-4.08M843.92,675.6c1.78-2.25,3-4.08,2.73-4.08s-1.97,1.84-3.75,4.08-3,4.08-2.73,4.08,1.97-1.84,3.75-4.08M785.59,672.07c-.3-.29-1.59.96-2.89,2.78l-2.36,3.31,2.89-2.78c1.58-1.53,2.64-3.01,2.36-3.31M849.16,668.71c1.27-1.62,1.24-1.65-.39-.39-.98.78-1.79,1.57-1.79,1.79,0,.85.84.31,2.18-1.4M462.04,717.02c-.96-1.16-.86-2.25.5-5.11.95-2,2.12-3.64,2.6-3.64,1.53,0,4.13,6.15,3.46,8.22-.75,2.37-4.77,2.69-6.57.52M392.57,700.94c.02-1.87.67-4.24,1.45-5.26,1.36-1.79,1.5-1.76,3.11.7,2.48,3.78,1.67,7.22-1.79,7.62-2.57.3-2.81.03-2.78-3.06M465.05,629.74c0-6.64.2-7.36,2.3-8.13,1.27-.45,12.63-1.62,25.28-2.58,22.96-1.77,58.42-4.94,119.99-10.77,26.06-2.47,76.5-6.76,136.59-11.61l4.85-.4v3.37c0,3.18-.23,3.39-4.34,3.95-9.52,1.31-122.92,14.55-162.12,18.92-15.44,1.73-37.27,4.28-48.51,5.67-11.23,1.4-30.53,3.68-42.89,5.08s-24.42,2.83-26.81,3.17l-4.34.63v-7.29M370.08,619.88c-11.51-1.86-25.99-4.23-32.17-5.26l-11.23-1.89-.31-5.93-.32-5.93,2.87.56c1.57.32,7.91,1.26,14.09,2.09,27.21,3.7,50.05,6.91,50.21,7.08.1.09.5,3.03.9,6.55.66,5.83.56,6.36-1.19,6.25-1.05-.07-11.35-1.64-22.85-3.51M449.34,616.85c-7.79-1.3-23.05-3.62-33.9-5.15l-19.72-2.8-.32-13.38c-.16-7.35-.25-13.5-.17-13.67.07-.16,15.58.97,34.47,2.53l34.33,2.82v16.11c0,8.86-.11,16.06-.26,16s-6.64-1.17-14.43-2.47M466.07,603.35v-16.27l18.13-.66c9.97-.36,33.06-1.57,51.32-2.7,26.16-1.61,124.76-7.18,127.13-7.18.29,0,.52,1.54.52,3.42v3.42l-9.96.65c-5.47.36-31.56,2.05-57.95,3.78s-51.67,3.53-56.17,4.03l-8.17.91,8.68-.41c8.82-.42,33.73-1.98,89.95-5.62,17.17-1.11,31.76-2.02,32.42-2.02.82,0,1.19,2.72,1.19,8.68,0,4.77-.35,8.68-.77,8.68s-28.34,2.53-62.04,5.62c-33.7,3.09-75.98,6.77-93.95,8.17-17.97,1.41-34.4,2.83-36.51,3.16l-3.83.6v-16.27M527.6,593.17c-1.83-.23-4.81-.23-6.64,0-1.83.22-.34.41,3.32.41s5.15-.18,3.32-.41M302.93,608.85l-18.63-3.21v-5.36c-.01-6.45-1.91-6.24,22.46-2.49l17.87,2.75.31,5.87c.37,6.99,2.83,6.71-22.01,2.44M357.82,603.55c-16.57-2.44-30.47-4.46-30.89-4.49-.42-.03-.77-5.39-.77-11.92v-11.87l8.43.75c4.64.41,19.68,1.73,33.44,2.93l25.02,2.19.29,13.53.29,13.53-2.84-.1c-1.56-.06-16.39-2.1-32.96-4.54M259.79,602.69l-17.87-2.16-.3-6.81-.31-6.81,5.41-.58c10.53-1.14,11.43-1.47,3.1-1.12-8.11.33-8.43.26-8.43-1.92s.28-2.22,5.87-1.52c3.23.41,7.14.78,8.68.83,2.53.07,2.81.45,2.81,3.8v3.71l-6.89-.53c-12.66-.98-2.89,1.05,13.79,2.88l16.42,1.79.35,5.45c.4,6.45,2.95,6.12-22.64,3.01M664.19,593.47v-8.6l6.38-.6c3.51-.34,14.89-1.08,25.28-1.66,10.39-.58,26.02-1.48,34.72-2,8.7-.51,17.55-.95,19.66-.97l3.83-.03v15.18l-5.36.55c-2.95.31-9.5.83-14.55,1.16-5.06.33-22.74,1.72-39.32,3.08-16.56,1.37-30.24,2.49-30.38,2.49s-.26-3.87-.26-8.6M322,598.62c-.23-.21-7.78-1.4-16.77-2.62-8.99-1.22-17.37-2.43-18.64-2.69-2.21-.45-2.3-.89-2.3-11.26v-10.8l4.85.6c2.67.34,10.82,1.08,18.13,1.66,19.89,1.58,17.87.02,17.87,13.78,0,9.09-.31,11.72-1.36,11.72-.76,0-1.55-.17-1.79-.39M755.07,587.39c0-8.41.33-8.76,8.43-8.79h3.83s-.01,7.9-.01,7.9v7.91s-6.13.26-6.13.26l-6.12.27v-7.55M273.15,591.74c-4.16-.48-7.74-1.05-7.96-1.28-.22-.22-.1-1.63.28-3.14.65-2.59.95-2.71,5.92-2.3,2.88.23,4.21.23,2.94-.01-3.75-.73-2.62-2.21,2.04-2.68,2.39-.23,1.01-.27-3.06-.06l-7.4.36v-12.51l6.28.65c3.45.36,7.13.65,8.17.65,1.72,0,1.89.96,1.89,10.72,0,5.89-.35,10.66-.77,10.59s-4.17-.53-8.33-1.01M260.81,587.18c0-4.62,2.41-4.27,2.87.42.23,2.39-.09,3.24-1.28,3.24s-1.59-1.02-1.59-3.66M427.01,582.85l-31.4-2.62v-44.54l4.85-.1,4.85-.1-3.57-.89c-1.97-.48-4.15-.68-4.85-.44-1.01.36-1.28-7.43-1.28-36.73v-37.18l3.83-.4,3.83-.4-3.83-.17c-3.72-.17-3.83-.29-3.83-4.03v-3.86l14.55-1.85c21.77-2.78,47.92-5.72,50.84-5.74,2.2-.01,2.56.42,2.38,2.8-.11,1.54-.23,22.52-.29,46.61l-.08,43.8-18.89-.51c-10.4-.29-18.89-.12-18.89.36s8.44.89,18.75.89h18.74l.65,6.89c.36,3.79.65,14.59.65,24v17.11s-2.8-.12-2.8-.12c-1.54-.07-16.94-1.31-34.21-2.76M465.88,563.16c-.17-12.58-.15-23.45.05-24.15.26-.89,2.95-1.28,8.94-1.28h8.57v10.7c0,12.17.62,11.44-10.21,12.08-4.62.27-4.22.36,2.24.52l7.84.18.42,3.32.41,3.32.16-3.3c.2-4.16-.17-4.07,23.87-4.84l19.11-.61.34,9.49.34,9.48.21-9.33.21-9.33,9.96-.62c5.47-.34,21.45-1.09,35.49-1.67,14.04-.57,35.5-1.49,47.68-2.04,12.17-.54,26.53-.99,31.91-.99h9.76v21.45h-2.81c-4.12.01-90.36,4.74-129.44,7.11-18.54,1.11-40.69,2.34-49.21,2.73l-15.52.68-.31-22.88M664.19,580.27v-3.49l7.4-.63c12.82-1.1,40.32-2.56,61.78-3.3l20.68-.69v6.15l-13.53.68c-20.37,1.03-62.71,3.58-69.95,4.21l-6.38.56v-3.48M260.81,576.03c0-5.22.33-6.64,1.53-6.64s1.53,1.42,1.53,6.64-.33,6.64-1.53,6.64-1.53-1.42-1.53-6.64M249.57,580.95c-8.23-.85-8.17-.79-8.17-7.55v-6.16l6.38.62c11.51,1.11,10.98.75,10.98,7.67s.64,6.42-9.19,5.41M360.89,576.98c-13.77-1.29-27.21-2.38-29.87-2.41l-4.85-.07v-38.81h67.4v43.91l-3.83-.14c-2.1-.07-15.08-1.19-28.85-2.48M755.07,575.74c0-3.39,1.72-4.27,8.43-4.3,3.57-.01,3.83.19,3.83,3.05s-.18,3.06-4.51,3.06c-2.48,0-5.24.28-6.13.62-1.25.48-1.61-.07-1.61-2.44M664.19,564.52v-11.1l30.89-1.25c16.99-.68,37.21-1.52,44.93-1.87l14.04-.63v21.45l-24.25.7c-22.7.65-46.16,1.92-59.74,3.23l-5.87.57v-11.1M315.44,572.97c-.56-.19-7.68-.9-15.83-1.56l-14.81-1.22.05-52.74.05-52.74,3.01-.3c1.65-.15,10.18-1.19,18.94-2.3,19.82-2.49,18.42-2.55,17.97.81-.35,2.64-.73,2.84-6.59,3.32-3.42.28-6.55.85-6.95,1.26-.41.4,2.24.46,5.87.12l6.62-.62.68,20.21c.37,11.12.67,26.11.67,33.32v13.11h-3.06c-1.68,0-3.06.46-3.06,1.02s1.38,1.02,3.06,1.02h3.06v37.78l-4.34-.08c-2.39-.04-4.8-.23-5.36-.43M755.07,560.46v-10.47h5.62c3.38,0,5.62-.44,5.62-1.11,0-.71-2.02-.99-5.62-.77l-5.62.35v-73.02h2.94c1.61,0,4.37.29,6.13.63l3.19.64v93.51l-6.13.35-6.13.35v-10.47M272.55,569.47l-6.13-.59-.51-18.89c-.28-10.39-.36-32.79-.16-49.78.39-35.3-.96-31.28,10.89-32.31l6.13-.54.37,51.53.36,51.53-2.4-.17c-1.33-.09-5.17-.44-8.54-.77M256.21,567.86c-.56-.19-4.13-.65-7.91-1.02l-6.89-.67v-41.61l7.4-.36,7.4-.35-7.4-.2-7.4-.2v-27.06c0-14.89.35-27.09.77-27.13.42-.04,4.33-.4,8.68-.8l7.91-.71v50.32c0,27.69-.35,50.28-.77,50.24-.42-.04-1.23-.23-1.79-.43M260.81,517.93v-50.44l3.32-.59c1.83-.32,7-.81,11.49-1.08l8.17-.5-6.64,1.01c-3.65.55-8.13,1.24-9.96,1.52l-3.32.53v50c0,43.75-.19,49.99-1.53,49.99s-1.53-6.28-1.53-50.44M484.54,548.42l.03-10.77,15,.23c8.26.13,17.88.42,21.39.64l6.38.42v18.9l-15.48.66c-8.52.37-18.15.67-21.41.67h-5.93l.02-10.76M528.37,548.49v-9.73h27.32c15.02-.02,32.45-.32,38.74-.66l11.42-.63.4,4.47.4,4.48.18-4.34.17-4.34,18.64-.21,18.64-.22-18.38-.54-18.38-.55-.27-33.96-.28-33.96,4.36-.11,4.35-.1-4.28-.96c-3.55-.8-4.35-1.43-4.7-3.73l-.42-2.76-.15,2.86c-.14,2.62-.41,2.81-3.47,2.29-4.69-.79-38.56-4.28-54.38-5.62-20.5-1.73-19.91-1.55-19.91-5.71,0-2.69.43-3.52,1.79-3.5,3.28.04,30.1,2.9,56.42,6.01,23.77,2.82,69.25,7.24,74.5,7.24h2.18l-.26,43.85-.26,43.86-6.17.52c-3.39.3-31.44,1.47-62.33,2.62-30.89,1.15-58.35,2.34-61.02,2.62l-4.85.54v-9.74M664.19,544.63v-7.4l24.46.29,24.45.3.39,4.81.38,4.82.18-4.8.18-4.79,4.85-.38,4.85-.39-4.87-.18-4.87-.18.07-33.19c.05-25.13.37-33.19,1.3-33.2.67,0,9.61,1.01,19.86,2.26l18.64,2.27v74.12l-6.38.02c-3.51.01-22.01.69-41.1,1.51-19.1.83-36.45,1.51-38.55,1.52h-3.83s0-7.39,0-7.39M500.92,536.99l-16.72-.33.61-15.55c.34-8.55.62-28.89.64-45.2l.02-29.67,20.17,2.31c11.09,1.28,20.4,2.33,20.68,2.35.28.01.39,19.33.23,42.92l-.28,42.89h-2.28c-1.26.02-3.2.15-4.32.32-1.12.15-9.57.13-18.77-.04M465.96,493.06c-.07-24.01-.28-44.97-.46-46.58l-.35-2.92,5.82.67c3.21.38,7.31.94,9.14,1.25l3.32.57v90.66h-17.36l-.11-43.66M528.37,500.61c0-20.03.35-36.41.77-36.4.42.01,6.74.68,14.04,1.51s13.74,1.51,14.3,1.52c.64.01.95,6.45.82,17.64-.1,9.69-.22,24.4-.26,32.68l-.05,15.06h-13.21c-7.71,0-13.48.43-13.85,1.02-.71,1.16,40.55,1.43,54.38.36l8.43-.66v-64.71l-13.53-1.25c-7.44-.68-14.56-1.46-15.83-1.72-2.25-.47-2.3-.26-2.44,8.99-.07,5.21-.45,20.5-.83,33.98l-.69,24.51-.18-33.83-.19-33.82-9.45-1.1c-5.2-.61-12.32-1.4-15.83-1.76-3.51-.37-6.38-1.09-6.38-1.62s1.49-.71,3.32-.41c1.83.31,15.49,1.71,30.38,3.11,14.89,1.41,28.51,2.8,30.29,3.08l3.22.54.14,34.18.13,34.18-12.04.02c-6.62,0-21.8.31-33.74.65l-21.7.65v-36.41M707.59,535.99l-3.06-.39-.13-29.57-.13-29.56h8.95v30.13c0,23.51-.28,30.08-1.28,29.96-.7-.09-2.66-.34-4.34-.56M597.81,501.48v-34.21h8.17v68.42h-8.17v-34.21M664.19,500.31v-35.37l6.89.64c5.03.47,39.64,4.37,41.87,4.72.14.02.26,1.23.26,2.68,0,2.34-.32,2.56-2.81,2.04-3.83-.8-39.31-4.68-42.79-4.68-1.78,0-2.45.36-1.84.97.54.54,9.02,1.81,18.84,2.83l17.87,1.85.31,29.85.32,29.86h-38.92v-35.39M700.72,505.95l.27-28.2-3.84-.64c-2.12-.35-5.12-.63-6.66-.64h-2.81s0,28.25,0,28.25c0,15.53-.33,27.93-.71,27.53-.93-.92-.92-.64-1.14-30.9l-.18-25.67-6.89-.68c-3.79-.38-8.46-.95-10.36-1.28-2.24-.39-3.24-.22-2.83.44.36.58,3.3,1.36,6.54,1.74,3.24.37,7.37.94,9.2,1.25l3.32.57v54.92h-9.7c-5.98,0-9.7.41-9.7,1.05,0,.69,6.01.96,17.62.77l17.62-.29.28-28.21M326.17,500.46v-33.19h7.1l.28,33.19.29,33.19h-7.66v-33.19M346.33,532.88l-10.98-.33v-66l15.57-1.27c8.57-.69,21.09-1.91,27.83-2.7,14.47-1.7,14.81-1.71,14.81-.58,0,.48-4.18,1.16-9.28,1.53-5.11.36-9.69.91-10.19,1.22-.51.32-.74,14.54-.51,32.69.21,18.37,0,32.12-.52,32.12s-1.03-14.37-1.18-32.42c-.26-31.73-.31-32.42-2.31-32.24-1.12.11-8.82.75-17.11,1.43l-15.06,1.25v62.78l19.66.73c10.81.4,23.45.56,28.08.37,6.25-.27,8.43-.03,8.43.92,0,1.27-16.18,1.44-47.23.51M563.09,499.8v-31.81l8.94.69c4.91.37,11.35.96,14.3,1.31l5.36.63v60.99h-28.59v-31.81M347.87,528.81l-8.43-.35v-29.57c0-22.96.29-29.58,1.28-29.63.7-.02,7.6-.62,15.32-1.32l14.04-1.29v62.91l-6.89-.2c-3.79-.12-10.68-.37-15.32-.55M375.87,528.88c-.38-.37-.68-14.59-.68-31.61v-30.93l3.32-.5c1.83-.28,5.96-.77,9.19-1.08l5.87-.57v65.38h-8.51c-4.69,0-8.82-.31-9.19-.68M55.09,522.52c-.31-.5-.27-4.41.09-8.68l.65-7.76h148.8v17.36h-74.49c-42.91,0-74.73-.39-75.06-.92M206.1,519.1c.09-2.39.27-6.22.38-8.51l.2-4.18,9.45-.15c5.2-.09,12.78-.45,16.85-.81l7.4-.63v18.62h-34.45l.16-4.34M87.97,504.3c-6.94-.27-8.94-.67-8.94-1.82,0-1.23,3.75-1.52,22.72-1.77l22.72-.3-22.72-.23-22.72-.23v-19.35l17.11-.31,17.11-.31-17.11-.23-17.11-.22v-23.49l10.98-.12c6.04-.06,11.55-.04,12.25.05.7.08,1.28-.38,1.28-1.03,0-.9-3.15-1.01-12.25-.47l-12.25.74v-49.71h125.47l.05,49.27.06,49.27h-28.56v-2.52c0-2.51.04-2.52,11.49-2.84l11.49-.33-11.49-.22-11.49-.21v-34.13c0-18.77-.27-34.81-.59-35.66-.4-1.03.18-1.67,1.79-1.98,1.31-.26-5.28-.52-14.64-.59-12.5-.1-17.18-.48-17.62-1.42-.47-1.02-.71-1.02-1.18,0-.45.95-5.58,1.3-20.17,1.36-10.77.04-19,.31-18.3.59,1.85.75,1.85,43.88,0,44.55-3.86,1.38,2.39,2.23,19.19,2.6l18.85.42v25.2l-9.45.34-9.45.34,9.45.21c9.33.21,9.45.25,9.45,2.77v2.55l-23.23-.21c-12.78-.11-27.26-.36-32.17-.54M192.16,471.63c-2.64-.21-7.24-.21-10.21-.01-2.96.2-.8.38,4.82.38,5.62.01,8.05-.16,5.39-.37M201.85,470.68c-.69-.28-2.07-.3-3.06-.03-.99.26-.43.48,1.26.51,1.68.02,2.5-.19,1.81-.48M184.49,461.49c-.69-.28-2.07-.3-3.06-.03-.99.26-.43.48,1.26.51,1.68.02,2.5-.19,1.81-.48M199.31,460.4c-2.09-.21-5.77-.21-8.17,0-2.41.21-.69.39,3.8.4,4.49,0,6.45-.17,4.37-.4M193.13,428.87c-.34-.35-1.23-.38-1.96-.08-.82.33-.57.56.62.61,1.07.04,1.67-.19,1.34-.53M199.79,427.79c-.7-.29-1.85-.29-2.55,0s-.13.51,1.28.51,1.98-.22,1.28-.51M180.05,420.7c.23-.22-17.61-.41-39.63-.41-29.48,0-39.87.31-39.35,1.15.52.85,11.12.95,39.63.41,21.4-.41,39.11-.93,39.35-1.15M145.41,502.55c0-2.36.39-2.53,6.38-2.87l6.38-.36-6.38-.2-6.38-.19v-30.64h28.59v29.52l-7.4.36-7.4.35,7.28.2c6.8.19,7.32.37,7.75,2.64.43,2.21.04,2.49-4.11,3.06-2.51.34-9.11.62-14.64.62-10.01,0-10.07-.02-10.07-2.5M55.59,451.29l.09-52.75,13.88.66c7.63.37,42.25.66,76.93.66,62.56,0,63.06.02,62.53,2.04-.64,2.44-1.89,2.64-2.74.45-.34-.88-1.08-1.31-1.65-.95-.57.35-.78,1.07-.46,1.59.37.58-23.73.95-62.27.95-55.2,0-62.87-.18-62.87-1.53,0-.84-.46-1.53-1.02-1.53s-1.02.69-1.02,1.53-.68,1.53-1.53,1.53-1.53-.69-1.53-1.53-.46-1.53-1.02-1.53-1.02.65-1.02,1.46-1.03,1.66-2.3,1.9l-2.3.45,2.3.13,2.3.14v49.95l-7.4.36-7.4.35,7.4.2,7.4.2v43.81l-5.36.37-5.36.38,5.36.19c3.38.11,5.36.63,5.36,1.41,0,.95.28.95,1.23,0,1.71-1.71,3.88-1.53,3.88.31,0,1.27-1.88,1.53-10.74,1.53h-10.73l.08-52.75M67.54,479.8c-2.1-.21-5.56-.21-7.66,0-2.1.22-.38.4,3.83.4s5.93-.17,3.83-.4M63.97,404.25c-1.27-.23-3.33-.23-4.6,0-1.27.25-.22.45,2.3.45s3.56-.2,2.3-.45M206.68,500.97c0-2.04.51-3.06,1.53-3.06s1.53,1.02,1.53,3.06-.51,3.06-1.53,3.06-1.53-1.02-1.53-3.06M211.79,501.01v-3.02l8.94-.35,8.94-.34-8.94-.2-8.94-.21v-46.21c-.02-25.42-.31-47.24-.64-48.51-.6-2.27-.48-2.3,9.2-2.3h9.82v23.22l-8.94,1.62c-8.39,1.53-4.84,1.6,4.59.1l4.32-.69.29,36.63q.28,36.42.64-12.89c.19-27.25.42-50.21.5-51.05.08-.94,2.49-2.22,6.26-3.33,5.56-1.63,4.01-1.72-3.37-.17-2.73.57-2.87.41-3.09-3.47l-.25-4.07,25.46-6.23c14-3.42,25.65-6.22,25.91-6.22.99,0,.4,7.71-.64,8.4-.78.52-.73.76.15.77.96.02,1.28,3.65,1.28,14.69v14.66l-13.41,2.91c-7.37,1.59-12.96,3.05-12.4,3.24.55.18,6.39-.83,12.98-2.25,6.58-1.43,12.16-2.59,12.4-2.59s.43,7.55.43,16.77v16.77l-2.81.56c-2.42.49-18,2.42-34.17,4.23l-4.8.54-.36-7.95c-.18-4.37-.44,7.33-.55,26.01l-.2,33.96h-28.59v-3.02M243.45,421.35c4.21-1.05,6.74-1.94,5.62-1.95-1.12-.02-5.49.83-9.7,1.89-4.21,1.05-6.74,1.94-5.62,1.95,1.12.02,5.49-.83,9.7-1.89M254.94,418.6c-.7-.29-1.85-.29-2.55,0s-.13.51,1.28.51,1.98-.22,1.28-.51M263.61,387.43c9.37-2.35,16.6-4.4,16.06-4.56-.55-.16-8.8,1.72-18.35,4.18s-16.78,4.51-16.06,4.56c.71.05,8.97-1.83,18.35-4.18M73.93,477.99c0-18.83.21-21.96,1.53-21.96s1.53,3.12,1.53,21.96-.21,21.96-1.53,21.96-1.53-3.12-1.53-21.96M206.68,450.93c0-29.95.36-45.95,1.02-45.95s1.02,11.86,1.02,33.54c0,18.45.3,39.13.66,45.95.6,11.14.5,12.42-1.02,12.42s-1.68-3.89-1.68-45.95M759.93,474.68l-4.85-.38v-11.4l4.74.64c2.6.36,5.36.65,6.13.65,1,0,1.39,1.56,1.39,5.62s-.39,5.57-1.28,5.43c-.7-.1-3.46-.36-6.13-.57M730.82,470.97l-16.59-2.14v-5.35c0-5.26.04-5.33,2.81-4.86,1.54.27,9.47,1.18,17.62,2.04,20.83,2.19,19.4,1.62,19.4,7.66q0,5.09-3.32,4.94c-1.83-.07-10.78-1.1-19.91-2.29M116.61,469.58c4.66-.19,12.01-.19,16.34,0,4.32.18.51.35-8.48.35-8.99-.01-12.53-.16-7.86-.35M241.4,460.71v-7.58l6.89-.65c3.79-.36,11.93-1.32,18.09-2.12,18.01-2.37,16.89-2.74,16.89,5.61s.52,7.75-11.23,8.74c-8.54.71-11.59,1.06-21.96,2.53-3.93.55-7.5,1.02-7.91,1.03-.42.01-.77-3.39-.77-7.56M684.61,465.7c-9.82-1.31-18.44-2.4-19.15-2.44-.85-.05-1.28-1.84-1.28-5.3v-5.22l6.89.68c13.94,1.39,34.57,3.68,38.3,4.25q3.83.59,3.83,5.61v5.01l-5.36-.11c-2.95-.06-13.41-1.17-23.23-2.48M108.65,456.04v-11.23h14.3v22.47h-14.3v-11.23M124.99,456.04v-11.23h15.32v22.47h-15.32v-11.23M142.78,446.85c0-11.51.15-16.23.34-10.47.17,5.76.17,15.18,0,20.93-.18,5.76-.34,1.04-.34-10.47M145.41,447.36v-19.91h28.59v39.83h-28.59v-19.91M326.36,462.92c.32-3.3.35-3.31,7.47-4.12,3.93-.45,18.29-2.16,31.9-3.83,30.04-3.67,28.86-3.64,28.84-.73,0,1.27-.35,2.82-.77,3.45-.76,1.16-15.74,3.04-47.72,6.01-9.55.88-17.96,1.81-18.7,2.06-.97.33-1.26-.48-1.02-2.86M284.3,455.71v-7.48l16.08-1.77c8.84-.96,18.06-2.03,20.48-2.36l4.38-.61-.3,7.55-.31,7.55-17.36,2.24c-9.55,1.23-18.63,2.26-20.17,2.3l-2.81.06v-7.48M638.15,461.09c-29.64-2.95-39.7-4.05-60.4-6.63-10.76-1.33-30.29-3.38-43.4-4.53-13.11-1.16-29.11-2.8-35.55-3.63-6.43-.83-12.06-1.5-12.51-1.5s-.81-3.9-.81-8.68.18-8.68.41-8.68,6.55.91,14.04,2.02c7.5,1.1,25.65,3.63,40.34,5.6,14.7,1.97,36.06,4.98,47.49,6.69,11.43,1.71,32.04,4.71,45.8,6.68,33.09,4.75,29.62,3.62,29.62,9.67s2.5,5.73-25.02,2.99M758.74,462.43l-3.98-.41.66-19.08c.37-10.49.67-23.23.67-28.31v-9.23l5.62,1.02,5.62,1.03v55.73l-2.3-.17c-1.27-.09-4.1-.36-6.29-.58M734.65,459.56c-10.39-1.32-19.24-2.41-19.66-2.44s-.77-9.47-.77-20.98v-20.9l3.32.48,3.32.48-3.43-1.07c-5.2-1.63-3.01-2.38,2.84-.98,2.82.67,5.66,1.05,6.31.84.64-.21-1.87-1-5.59-1.74l-6.77-1.35v-68.05l8.94,2.38c12.19,3.24,15.18,3.88,14.4,3.1-.37-.37-3.36-1.35-6.64-2.18-3.29-.83-8.38-2.19-11.34-3.02l-5.36-1.51v-15.29c0-8.4.35-15.28.77-15.26s9.5,2.44,20.17,5.38l19.4,5.36.04,38.78c.02,21.33-.15,39.61-.39,40.63-.23,1.01-1,1.62-1.7,1.36-.7-.27-3.51-.74-6.25-1.04-4.75-.52-4.69-.47,1.4,1.03l6.38,1.57v28.51c0,15.68-.11,28.45-.26,28.39-.14-.06-8.76-1.18-19.15-2.49M326.38,450.68l.3-7.4,5.62-.71c3.08-.4,17.69-2.35,32.43-4.34,14.76-1.99,27.5-3.63,28.34-3.63,1.22,0,1.52,1.55,1.52,7.61v7.62l-3.32.54c-8.8,1.44-60.62,7.72-63.7,7.72-1.19,0-1.43-1.46-1.18-7.4M711.08,456.66c-.23-.21-10.96-1.46-23.81-2.76l-23.39-2.37.62-22.38c.35-12.32.79-22.55.98-22.74s9.92,1.49,21.6,3.76c11.68,2.27,22.22,3.96,23.43,3.77s-7.01-2.1-18.24-4.26c-24.88-4.77-28.14-5.49-25.53-5.6,1.12-.05,8.48,1.05,16.34,2.44,7.86,1.39,15.07,2.53,16.02,2.53,1.59.01,1.75-2.51,1.82-30.06l.08-30.08-5.32-1.57c-2.92-.87-5.92-1.58-6.66-1.58-1.08,0-1.35,5.78-1.35,29.62,0,16.29-.35,29.62-.77,29.62s-.63-13.51-.47-30.03l.3-30.03-3.36-1.02c-1.85-.55-6.46-1.82-10.25-2.8-3.79-.97-6.89-2.09-6.89-2.49,0-.65,15.88,3.35,30.92,7.79l5.89,1.74-.28,30.93-.29,30.93,2.42.6c1.33.34,2.69.34,3.01.01.34-.33-.41-.87-1.64-1.19l-2.26-.58v-60.84l2.3.55c1.63.4,2,.22,1.27-.57-.98-1.06-17.9-5.96-33.82-9.81-5.47-1.32-7.53-2.3-8.26-3.95-.66-1.48-1.17,8.98-1.56,32.33-.33,18.98-.83,34.77-1.12,35.07-.3.3-4.82-.19-10.05-1.08-8.24-1.4-44.19-6.77-45.34-6.77-.23,0-.42-17-.42-37.78s.39-37.78.86-37.78c1.58,0,87.36,20.45,94.63,22.57,3.93,1.14,7.96,2.31,8.94,2.58,1.65.48,1.79,2.99,1.79,34.06,0,25.89-.3,33.67-1.28,34.07-1.02.41-1.02.53,0,.59.98.06,1.28,5.3,1.28,22.55,0,19.76-.38,23.69-2.12,22.07M73.93,430c0-21.56.21-25.02,1.53-25.02s1.53,3.46,1.53,25.02-.21,25.02-1.53,25.02-1.53-3.46-1.53-25.02M619.76,445.24c-19.66-3.02-52.51-7.8-73.02-10.61-20.51-2.81-42.68-5.9-49.27-6.87l-12-1.77v-29.91c0-19.01.37-29.91,1.01-29.91.55,0,7.69,1.41,15.86,3.14s15.39,2.96,16.04,2.75c.64-.21-5.92-1.89-14.59-3.72s-16.27-3.47-16.89-3.67c-.77-.25-1.35-12.43-1.85-38.85-.41-21.17-.59-38.64-.41-38.83.19-.18,9.88,2.03,21.52,4.93l21.18,5.27v84.35l-6.89-.47-6.89-.47,6.89,1.11,6.89,1.11v5.45c0,3.28.45,5.45,1.12,5.45s.99-1.87.77-5.11c-.22-3.19.06-5.11.75-5.11,2.56,0,50.22,7.17,72.12,10.85,3.44.58,3.81.96,4.17,4.34l.39,3.71.17-3.81c.16-3.55.36-3.77,2.98-3.31,5.7,1.01,50.98,7.63,52.15,7.63.89,0,1.21,6.2,1.21,24v24l-3.83-.09c-2.1-.04-19.91-2.56-39.57-5.6M395.61,441.74c0-6.49.31-8.17,1.5-8.17.82,0,13.57-1.57,28.34-3.5,14.76-1.92,29.5-3.81,32.75-4.21l5.91-.7-.3,8.53-.3,8.53-17.36,1.73c-9.55.95-24.61,2.68-33.49,3.85-8.86,1.16-16.33,2.12-16.59,2.12s-.47-3.68-.47-8.17M284.3,429.81v-17.27l6.89-1.22c3.79-.66,12.98-2.31,20.42-3.65l13.53-2.44v37.09l-16.08,1.8c-8.84.99-18.03,2.06-20.42,2.38l-4.34.57v-17.27M473.77,443.39l-8.14-1.14-.08-8.55-.08-8.56,7.11.66c11.42,1.06,12.18,1.39,11.47,4.96-.34,1.67-.61,5.52-.61,8.54s-.35,5.43-.77,5.36-4.42-.64-8.89-1.28M108.65,435.1v-8.68h14.3v17.36h-14.3v-8.68M125.2,435.36l.3-8.43h14.3l.3,8.43.3,8.43h-15.48l.3-8.43M326.17,423.44v-18.3l2.81-.57c1.54-.32,9.7-1.71,18.13-3.09,8.43-1.38,21.67-3.69,29.43-5.12,7.76-1.44,15-2.61,16.1-2.61,1.92,0,1.98.74,1.72,19.62l-.28,19.62-32.17,4.34c-17.69,2.39-32.97,4.36-33.96,4.38-1.63.04-1.79-1.49-1.79-18.26M395.64,404.97l.09-27.66,2.49-.94c3.25-1.24,3.21-2.4-.06-1.78l-2.55.49v-71.08l4.85-1.56,4.85-1.56-4.85.54-4.85.54v-4.62c0-5.34.31-5.59,10.48-8.28,3.8-1.01,6.72-2.03,6.47-2.27-.23-.23-3.83.52-7.99,1.69-4.17,1.17-7.78,2.12-8.06,2.12s-.25-2.13.06-4.74l.56-4.74,19.74-5.71c10.86-3.14,19.28-5.85,18.74-6.03-.55-.18-9.55,2.15-20,5.21l-18.99,5.53v-18.03l10.47-3.21c5.76-1.76,19.66-6.08,30.89-9.59,11.23-3.52,21.64-6.69,23.13-7.05l2.7-.66-.14,19.93-.15,19.92-4.08,1.05c-14.48,3.74-52.35,14.64-53.61,15.44-1.98,1.26-.98,1.02,15.83-3.74,7.3-2.06,19.01-5.35,26.04-7.3s13.46-3.76,14.3-4c1.35-.39,1.5,4.3,1.3,38.59l-.22,39.04-2.33.68c-1.28.37-11.25,2.68-22.17,5.11-10.93,2.44-19.15,4.58-18.28,4.74.86.16,9.57-1.52,19.34-3.75s19.24-4.35,21.04-4.71l3.27-.66-.2,30.9-.2,30.91-29.1,3.79c-16.01,2.08-31.3,4.08-33.99,4.44l-4.88.64.09-27.66M471.69,424.46l-6.12-.59-.36-31.02-.35-31.02,2.39.59c1.32.33,5.72,1.14,9.79,1.82l7.4,1.22v23.09c-.01,12.69-.31,26.18-.66,29.97-.74,7.78.5,7.18-12.1,5.95M284.39,395.53c.37-23.89.05-22.76,6.9-24.66,5.29-1.47,2.67-1.54-3.15-.08l-2.51.63-.61-16.64c-.43-11.56-.28-16.85.49-17.33,1.21-.75,36.57-11.13,37.85-11.12.42.01.77,14.9.77,33.11v33.09l-5.11.7c-2.81.39-5.11,1.06-5.11,1.49s1.95.41,4.34-.05c6.96-1.35,6.89-1.39,6.89,4.16,0,4.45-.29,5.15-2.3,5.56-7.72,1.57-36.42,6.72-37.45,6.72-.93,0-1.18-3.89-1.01-15.57M694.06,406.75l-4.34-1.04v-28.96c0-15.93.3-28.96.64-28.96s2.43.53,4.6,1.18l3.95,1.18v28.94c0,15.92-.11,28.89-.26,28.82s-2.21-.59-4.6-1.16M759.67,405.1l-3.06-.65-.27-40.58c-.15-22.32-.11-40.58.07-40.58s2.72.7,5.63,1.57l5.29,1.57v79.57l-2.3-.12c-1.27-.06-3.68-.42-5.36-.78M677.46,403.85c-3.08-.48-7.11-1.14-8.94-1.46l-3.32-.57v-30.08c0-33.54-.58-31.17,7.15-29.11,1.96.52,5.52,1.46,7.91,2.07l4.34,1.13v29.57c0,16.27-.35,29.52-.77,29.45-.42-.06-3.3-.51-6.38-1M326.37,398.73l.31-5.3,13.28-2.28c10.85-1.85,42.67-8.17,52.34-10.4,2.19-.5,2.3-.23,2.3,5.72s-.05,6.25-2.81,6.26c-1.54.01-7.86.94-14.04,2.07-6.18,1.13-19.28,3.42-29.1,5.09-9.82,1.66-18.93,3.28-20.22,3.58-2.26.52-2.34.32-2.04-4.75M77.24,398.08l-21.7-.3v-8.21l87.31.3,87.31.3v7.33l-18.55.67c-17.35.63-85.1.58-134.38-.09M604.45,393.24c-.56-.18-2.28-.62-3.8-.96l-2.79-.61-.28-34.77-.29-34.77,3.32.62c1.87.35,3.32.19,3.32-.36s-1.95-1.29-4.34-1.67c-11.99-1.95-68.94-15.24-70.06-16.35-.31-.3-.65-1.93-.79-3.63-.18-2.46.11-2.98,1.47-2.56,2.3.7,46.48,12.08,62.61,16.12l12.9,3.24.17,38.1c.1,20.96.04,38.06-.13,38.02-.16-.04-.77-.23-1.33-.42M325.78,388.52c-.35-1.76-.63-16.65-.63-33.08v-29.89l3.68-.68c2.02-.38,3.87-.51,4.1-.29.22.23.7,15.12,1.07,33.1l.67,32.69-3.36.66q-4.83.97-5.52-2.51M592.7,391c-1.41-.23-14.73-2.26-29.62-4.49-14.89-2.24-28.55-4.3-30.38-4.59l-3.32-.52v-35.19c0-19.35.35-35.17.77-35.16.42.01,6.96,1.39,14.54,3.06,7.57,1.67,13.78,3.04,13.79,3.04,0,0,.01,14.47.01,32.17v32.17l-3.57-.03c-1.96-.02-8.15-.68-13.75-1.49-9.4-1.34-11.93-1.34-10.59,0,.29.28,5.99,1.22,12.68,2.07,6.69.86,19.1,2.7,27.56,4.07,8.48,1.39,17.1,2.52,19.15,2.52h3.75v-65l-15.57-3.53-15.57-3.53-.78,16.38c-.42,9-.65,23.84-.51,32.96s-.08,16.59-.5,16.59-.77-15.17-.77-33.7c0-28.88.21-33.7,1.49-33.7,1.37,0,4.82.75,26.78,5.75l7.33,1.66.1,34.59c.06,19.03-.02,34.53-.18,34.45-.15-.07-1.43-.33-2.84-.56M335.87,356.55v-33.1l3.57-1.02c7.24-2.06,10.61-2.1,4.34-.04l-6.38,2.08v31.58c0,17.36.35,31.57.77,31.57s8.27-1.38,17.45-3.06,16.88-3.06,17.11-3.06.42-15.24.42-33.87.18-33.68.41-33.44c.29.31,1.78,60.26,1.64,66.42,0,.35,4.01-.21,8.93-1.24,10.12-2.11,11.63-2.28,9.42-.97-1.35.79-54.13,11.27-56.74,11.27-.54,0-.93-14.02-.93-33.11M55.54,378.95v-8.67l87.31-.27,87.31-.27v17.87H55.54v-8.67M573.81,384.71l-10.21-1.68-.27-31.91c-.26-29.92-.16-31.91,1.53-31.89.99.01,7.31,1.3,14.05,2.85l12.25,2.83.27,30.85.28,30.85-3.85-.1c-2.11-.06-8.44-.87-14.05-1.79M339.44,355.57c0-27.71.13-30.05,1.79-30.52,10.52-3.05,28.54-7.89,29.35-7.89.67,0,.93,10.67.75,31.14l-.29,31.14-2.27.52c-2.32.53-28.61,5.62-29.07,5.63-.14,0-.26-13.5-.26-30M376.2,345.86v-32.57l7.99-2.15c4.39-1.18,8.53-2.15,9.19-2.15.9,0,1.21,8.34,1.21,33.19,0,18.26-.19,33.19-.42,33.19s-4.02.68-8.43,1.53c-4.4.84-8.35,1.53-8.77,1.53s-.77-14.65-.77-32.57M122.96,359.79c0-4.64.4-9.04.87-9.78.7-1.1,8.09-1.22,40.58-.61l39.71.74-.33,9.04-.33,9.05h-80.53l.02-8.43M472.96,362.4l-7.91-1.52v-39.85c0-33.56.22-39.76,1.42-39.3.78.3,4.91,1.38,9.18,2.41l7.77,1.86v29.1c.02,16.01.32,33.59.68,39.06.76,11.49,1.8,10.72-11.14,8.23M705.04,340.11c-4.21-1.37-16.39-4.56-27.06-7.12-57.47-13.71-81.3-19.53-106.72-26.04-15.44-3.95-41.3-10.51-57.44-14.56l-29.36-7.37v-19.23c0-17.84.13-19.2,1.79-18.69,7.29,2.22,73,20.88,120.76,34.31,31.74,8.92,68.62,19.32,81.95,23.1l24.25,6.88v15.64c0,8.61-.11,15.62-.26,15.6-.14-.03-3.71-1.16-7.91-2.53M284.3,316.83v-19.95l5.87-1.69c5.53-1.59,29.86-9.37,32.72-10.46,1.03-.4,1.26,1.46,1.02,8.41l-.3,8.93-18.64,5.67c-10.25,3.11-18.43,5.87-18.18,6.14.4.39,18.15-4.72,33.02-9.51l4.38-1.41-.3,10.88-.29,10.87-6.64,1.9c-7.63,2.16-28.79,8.68-31.12,9.58-1.37.52-1.56-1.85-1.56-19.35M760.95,323.63l-4.85-1.49v-4.65c0-3.55.34-4.51,1.43-4.1.78.31,3.31,1.11,5.62,1.81,4.06,1.22,4.19,1.38,4.19,5.69,0,2.44-.35,4.38-.77,4.33-.42-.06-2.95-.78-5.62-1.59M325.81,323.46c-.2-.39-.32-5.23-.25-10.77l.13-10.09,16.32-5.03c29.45-9.08,52.5-15.88,52.81-15.57.16.16.14,2.31-.05,4.78l-.36,4.47-24.68,7.37c-13.57,4.06-28.81,8.74-33.86,10.42-16.47,5.44-3.69,2.07,25.02-6.61,37.86-11.44,33.88-10.85,33.51-5l-.32,4.85-17.87,4.91c-38.45,10.57-44.45,12.31-45.33,13.11-.51.45.18.56,1.53.23,1.81-.44,2.15-.29,1.35.58-1.37,1.48-7.43,3.27-7.95,2.35M335.59,320.67c.81-.81,54.99-14.72,57.38-14.74,5.96-.03-4.79,3.03-39.51,11.25-17.9,4.24-18.81,4.41-17.87,3.48M732.86,315.86l-18.64-5.21v-5.03c0-5.95-2.49-6.13,23.23,1.63l17.61,5.31v4.34c.01,3.49-.34,4.32-1.78,4.25-.98-.04-10.17-2.43-20.42-5.29M351.5,319.52c.74-.3,1.62-.27,1.96.08.34.34-.27.57-1.34.53-1.19-.05-1.44-.29-.62-.61M554.41,314.6c-.56-.18-6.42-1.6-13.02-3.15-6.6-1.54-12-3.24-12-3.77s.63-.73,1.41-.42c.78.3,7.31,1.98,14.53,3.75,7.22,1.77,13.33,3.41,13.57,3.66.51.5-2.96.45-4.49-.07M760.44,313.42l-4.34-1.54v-21.35c0-11.75.23-21.36.52-21.36s1.33.42,2.3.94c.98.51,3.27,1.49,5.1,2.16l3.32,1.23v19.79c0,15.14-.3,19.79-1.28,19.81-.85.01-.77.34.26,1,2.38,1.53-.59,1.19-5.87-.67M760.18,311.65c0-.22-.71-.67-1.58-1.01-.91-.35-1.32-.18-.96.4.59.97,2.54,1.44,2.54.61M743.84,308.13c-4.77-1.54-13.39-4.17-19.15-5.82l-10.47-3.01v-4.96c0-4.33.23-4.87,1.79-4.24,3.32,1.35,7.78,2.52,8.15,2.14.2-.2-1.88-1.18-4.63-2.18l-5-1.8-.66-14.4c-.36-7.92-.65-23.46-.66-34.53v-20.11l5.21,1.54c2.86.85,5.4,1.36,5.64,1.11.23-.23-2.06-1.22-5.13-2.18-4.66-1.47-6.74-3.08-6.74-5.24,0-.21.81-.17,1.79.1,9.9,2.74-118.69-49.32-140.93-57.07-1.58-.55-1.82-2.38-2.01-15.72l-.22-15.09-.32,14.66c-.29,13.31-.48,14.61-2.07,14.14-.97-.29-9.43-3.5-18.79-7.16-9.37-3.66-18.57-6.92-20.42-7.27-1.87-.34.91,1.11,6.17,3.23,5.25,2.11,9.51,4.19,9.45,4.61s-.11,1.66-.11,2.77c0,1.88-.42,1.81-7.23-1.08-3.97-1.7-7.69-2.92-8.26-2.74-.57.19,2.69,1.88,7.23,3.76l8.26,3.41v39.82c0,37.47-.1,39.78-1.79,39.18-1.71-.59-1.71-.55,0,.78,1.07.83,1.8,2.78,1.81,4.85,0,1.9.46,4.16,1,4.99.71,1.1.99.14,1-3.44.02-3.83.32-4.75,1.3-3.98,1.23.96,22.06,7.49,34.98,10.96,3.37.91,12.67,3.81,20.68,6.44l14.55,4.79v5.49c0,5.19-.12,5.45-2.3,4.9-1.27-.33-19.3-5.82-40.08-12.21-20.78-6.39-49.85-15.26-64.58-19.69l-26.81-8.07v-30.38c-.01-24.54.25-30.38,1.34-30.38.75,0,4.77,1.16,8.94,2.58,12.5,4.25,46,13.98,46.48,13.5.38-.38-21.4-7.18-49.36-15.42l-7.4-2.19v-8.2l20.68-10.33c11.38-5.68,27.71-14.28,36.29-19.11l15.61-8.77,31.36,10.25c17.25,5.64,48.6,16.01,69.66,23.06l38.3,12.81,5.39,5.76c7.21,7.7,19.41,23.36,30.37,38.95,4.92,7.03,12.73,17.6,17.35,23.49,10.46,13.36,21.26,28.59,20.69,29.17-.49.5-10.59,2.49-12.6,2.49-.73,0-1.52-1.03-1.76-2.3-.4-2.02-.46-1.97-.58.44-.1,1.97-.79,2.86-2.44,3.18l-2.3.45,2.3.13,2.3.14v20.93c0,16.08-.3,20.92-1.28,20.89-.7-.02-5.19-1.31-9.96-2.86M768.15,263.51c-.86-.86-49.14-16.83-49.57-16.4-.21.21,6.87,2.83,15.76,5.8,8.87,2.98,19.82,6.66,24.32,8.19,8.31,2.83,10.47,3.38,9.5,2.41M655.51,293.73c-30.89-8.84-82.01-23.4-113.61-32.33l-57.43-16.24v-7.02c-.01-6.19.19-6.94,1.78-6.49,6.61,1.88,69.16,20.92,77.87,23.7,23.3,7.43,147.15,44.44,148.72,44.44.2,0,.38,2.3.38,5.11s-.35,5.07-.77,5c-.42-.05-26.04-7.33-56.93-16.18M829.75,300.45c-1.16-1.4-.52-7.43.88-8.3,1.29-.79,3.12,4.59,2.47,7.2-.71,2.81-1.67,3.14-3.35,1.1M325.24,292.31l-.16-8.51,11.43-3.36c6.29-1.85,21.57-6.52,33.97-10.39,12.39-3.86,23.12-7.03,23.84-7.03.96,0,1.31,2.31,1.31,8.65v8.65l-5.87,1.66c-3.23.91-18.58,5.51-34.12,10.24-15.53,4.72-28.69,8.58-29.23,8.58s-1.06-3.83-1.15-8.51M701.97,295.58c-5.34-1.62-26.13-7.85-46.21-13.84l-36.51-10.89v-5.51c0-4.78.25-5.45,1.79-4.99.98.3,9.47,2.85,18.84,5.69,9.38,2.84,17.31,5.16,17.62,5.16s.64,2.19.74,4.85l.18,4.85.39-4.39c.36-3.97.61-4.32,2.63-3.72,1.23.37,10.74,3.42,21.13,6.78,10.39,3.35,21.43,6.9,24.51,7.88l5.62,1.78.31,4.77c.17,2.62-.05,4.72-.51,4.66-.45-.06-5.18-1.45-10.52-3.07M284.48,292.03c.27-3.09.83-3.98,2.88-4.56,1.41-.39,10.25-3,19.66-5.79l17.11-5.08v3.31c0,2.27-.56,3.47-1.79,3.83-1.42.41-22.94,7.25-35.81,11.39-2.22.71-2.34.53-2.04-3.09M821.44,286.92c-2.95-4.28-8.8-12.16-12.98-17.51-5.9-7.55-7.3-9.95-6.24-10.7,1.03-.75.94-.85-.37-.43-1.28.41-3.44-1.79-8.25-8.32-3.58-4.89-14.42-19.68-24.07-32.88-9.66-13.2-19.19-26.17-21.19-28.82l-3.64-4.83,3.19,1.11c1.76.61,3.41.91,3.67.65s-1.34-1.01-3.54-1.67c-3.52-1.05-5.45-3.11-15.7-16.76-6.42-8.55-17.15-22.48-23.82-30.94-6.68-8.47-21.07-26.9-31.98-40.97l-19.83-25.58-5.19,2.1c-2.85,1.15-25.62,12.38-50.62,24.93-39.59,19.88-45.9,22.75-49.02,22.3-3.54-.51-3.54-.5-.64.6,2.89,1.09,2.78,1.19-8.68,7.66-12.35,6.96-53.26,27.82-65.53,33.4l-7.35,3.35-6.51-1.45-6.49-1.45,9.56-4.33c13.13-5.94,49.65-24.37,85.14-42.95,41.47-21.72,95.76-49.65,105.79-54.42,1.15-.55,17.32,20.28,59.52,76.7,53.39,71.39,59.57,79.76,75.15,101.78,6.95,9.82,15.7,21.77,19.43,26.55,8.01,10.25,18.4,25.13,18.36,26.27-.02.44-.64,1.6-1.4,2.59-1.24,1.63-1.87,1.07-6.75-5.98M284.3,266.09v-21.21l18.13-7.88c20.08-8.73,49.35-21.02,83.48-35.03,18.77-7.71,51.67-21.69,72.25-30.7l4.85-2.12.04,26.27c.02,14.44.31,30.26.62,35.16.67,10.28,1.92,9.01-12.92,13.34-4.78,1.4-18.9,5.75-31.4,9.68l-22.72,7.13-.22-23.1-.22-23.1-.54,23.48c-.52,22.46-.63,23.49-2.58,23.85-1.12.2-6.87,1.89-12.77,3.76-5.89,1.87-16.24,5.08-22.98,7.14-6.74,2.06-16.51,5.09-21.71,6.72-5.21,1.63-9.68,2.97-9.96,2.97s-.5-1.34-.5-2.97c0-2.88.32-3.06,11.49-6.58,12.03-3.79,46.09-13.89,53.72-15.94,2.44-.66,4.25-1.4,4-1.63-.64-.64-58.28,16.08-67.93,19.71-.98.37-1.33-2.84-1.49-13.66l-.2-14.15-.56,14.26-.55,14.26-4.08,1.18c-2.25.65-11.09,3.27-19.66,5.8l-15.57,4.61v-21.21M443.68,230.28c10.73-3.83,16.2-6.28,10.14-4.56-3.69,1.05-21.87,7.79-22.39,8.29-.86.86.83.35,12.24-3.73M460.45,224.22c1.35-.58,1.52-.9.51-.93-.84-.03-2.23.39-3.06.93-1.87,1.21-.26,1.21,2.55,0M706.06,285.5c-3.08-1.04-11.13-3.57-17.87-5.64-6.74-2.06-15.93-5.02-20.42-6.59l-8.17-2.85-.27-30.83-.28-30.83,2.3.73c1.26.4,5.2,1.97,8.75,3.48l6.46,2.76-.09,28.45c-.05,15.64-.19,28.54-.32,28.67-.12.11-3.66-.88-7.84-2.21-7.44-2.37-11.39-2.66-5.55-.4,4.34,1.66,32.1,10.71,35.4,11.54l2.82.7-.27-29.36-.28-29.35-9.7-3.83c-5.34-2.1-10.01-3.84-10.38-3.86-.38-.02-.74,12.93-.81,28.78-.07,15.84-.35,29.01-.6,29.27-.26.27-.47-13.19-.47-29.91s.39-30.23.87-30.03c.48.18,5.69,2.15,11.58,4.38l10.72,4.04.66,29.54c.67,30.02,1,32.32,4.69,32.32.95,0,2.61.67,3.71,1.5,2.46,1.86,2.26,1.84-4.66-.48M827.58,283.7c-1.4-2.1-7.39-10.25-13.33-18.12-5.92-7.86-15.98-21.65-22.34-30.64s-13.28-18.64-15.37-21.45c-2.09-2.81-17.51-23.49-34.25-45.95-65.38-87.72-82.23-109.84-84.26-110.61-.78-.3-38.86,19.05-105.15,53.4-84.31,43.7-90.85,46.73-163.39,75.78-27.25,10.91-52.52,21.17-56.17,22.81-3.65,1.63-17.43,7.53-30.64,13.08-13.2,5.57-32.63,13.85-43.17,18.41-10.54,4.56-19.62,8.3-20.17,8.3s-1-2.68-1-5.95v-5.95l9.96-3.92c5.47-2.15,29.26-11.94,52.85-21.75,60.4-25.12,131.43-54.41,133.38-55.01,1.07-.33,1.85.26,2.21,1.64.46,1.74-.16,2.46-3.18,3.74-2.05.88-25.8,10.47-52.76,21.32-53.96,21.71-73.79,30.01-100.59,42.13-9.82,4.44-22.81,10.05-28.86,12.47-6.05,2.41-11.29,4.86-11.66,5.45-.4.65-.08.83.79.45.79-.35,7.41-3.14,14.72-6.19s18.57-7.93,25.02-10.86c22.94-10.33,40.79-17.85,76.59-32.23,19.93-8.01,44.98-18.11,55.66-22.44,10.67-4.33,21.83-8.73,24.81-9.77,2.97-1.03,6.65-2.76,8.17-3.82,1.52-1.06,6.1-3.19,10.16-4.72,4.07-1.54,7.66-3.22,7.98-3.73.76-1.23.07-1.18-2.93.18-1.91.87-3.12.79-5.34-.38l-2.88-1.51,2.49-.79c1.36-.43,24.32-11.58,50.99-24.76,83.66-41.38,123.89-61.05,144.71-70.74l8.38-3.91,22.76,30.14c12.53,16.58,29.43,39.24,37.58,50.35,15.1,20.61,34.25,46.61,52.64,71.46,5.64,7.63,17.56,23.98,26.49,36.33,8.94,12.36,18.94,26.11,22.24,30.58,7.33,9.91,10.16,15.27,9.74,18.51-.3,2.35-.44,2.28-2.87-1.36M472.96,282.22l-7.91-2.05v-19.29c0-10.61.35-19.3.77-19.31.42-.01,4.55,1.01,9.19,2.28l8.43,2.3v19.17c0,14.71-.3,19.15-1.28,19.07-.7-.05-4.84-1.02-9.19-2.15M707.97,283.33c-3.67-1.35-3.93-3.66-3.94-34.41v-25.85s2.29.69,2.29.69c1.55.47,1.97.36,1.28-.36-.56-.57-9.75-4.49-20.42-8.71-27.25-10.76-28.06-11.14-28.07-13.19-.01-.98.37-1.79.84-1.79s10.47,3.84,22.21,8.54c11.75,4.7,23.02,9.08,25.05,9.73,3.58,1.16,3.71,1.37,4.34,7.44.92,8.75.82,59.07-.11,58.96-.42-.04-1.97-.52-3.45-1.06M688.95,277.67l-7.4-2.56v-56.98l5.36,2.15c2.95,1.19,6.85,2.63,8.68,3.23l3.32,1.06v27.91c0,21.69-.29,27.89-1.28,27.83-.7-.04-4.61-1.23-8.68-2.63M763.76,271.21c-1.12-.47-2.96-1.21-4.08-1.61-1.81-.67-1.7-.85,1.02-1.5,6.04-1.46,7.68-1.17,7.3,1.27-.4,2.6-1.41,3.04-4.24,1.85M642.23,265.59c-7.86-2.45-16.14-5.11-18.38-5.91l-4.08-1.45-.27-37.5c-.26-35.79-.18-37.48,1.58-36.92,1.01.33,9.63,3.72,19.16,7.54l17.31,6.95.27,35.94c.15,19.77-.08,35.91-.51,35.88-.43-.04-7.21-2.07-15.07-4.52M656.85,223.7c-.86-.86-18.51-6.65-18.94-6.22-.22.22,3.65,1.79,8.6,3.49,9.01,3.09,11.33,3.7,10.34,2.73M630.04,214.45c-3.9-1.37-7.58-2.44-8.17-2.4-1.53.11,11.87,4.86,13.73,4.87.85,0-1.66-1.11-5.56-2.47M768.38,257.64c-14.13-19.67-61.4-82.3-63.7-84.39-1.49-1.37-2.71-2.81-2.71-3.22s-1.46-2.28-3.24-4.16c-1.79-1.89-8.54-10.55-15-19.26-6.47-8.71-16.2-21.34-21.62-28.08-10.78-13.43-27.54-35.61-27.54-36.46,0-.73,21.36-10.45,21.81-9.92.19.22,10.44,13.51,22.76,29.52,12.33,16.01,28.27,36.69,35.45,45.95,22.81,29.47,37.26,48.7,60.6,80.68,20,27.39,22.47,31.19,20.45,31.44-1.26.16-6.82,1.21-12.38,2.3-5.56,1.1-10.15,1.99-10.21,1.97s-2.16-2.89-4.68-6.38M735.49,179.79c-.82-.82-31.88-10.65-32.31-10.22-.38.38,30.1,10.59,31.9,10.69.51.03.69-.18.41-.47M260.12,257.98c-18.68-3.03-21.61-3.75-21.5-5.28.1-1.35,13.5-7.34,55.33-24.77,30.35-12.65,73.11-30.2,95.01-38.98,21.91-8.79,45.73-18.49,52.95-21.57,11.17-4.76,13.73-5.49,17.11-4.92,10.42,1.76,5.49,4.33-64.21,33.62-18.14,7.62-33.17,13.85-33.41,13.85-.79,0-56.88,24.19-67.26,29.01-5.53,2.56-10.46,4.43-10.94,4.14-.48-.3-1.01,3.73-1.16,8.94l-.3,9.49-21.62-3.51M612.62,255.66c-2.81-1.12-17.05-5.45-31.66-9.63s-28.17-8.37-30.13-9.33l-3.57-1.75-.27-35.09c-.21-27.94-.01-34.99,1.02-34.59.7.28,6.23,2.51,12.26,4.95l10.98,4.46v32.54c0,30.58-.11,32.5-1.79,31.85-3.47-1.35-18.82-4.75-19.86-4.4-1.45.49,51.58,16.1,54.67,16.1.87,0,.88-22.86.02-46.58l-.66-18.3-7.76-2.98c-4.27-1.64-10.81-4.21-14.55-5.7l-6.78-2.73-.76,21.04c-.41,11.57-.5,26.44-.2,33.04.35,7.49.18,12-.44,12s-.91-12.23-.76-33.44l.23-33.44-12.67-5.03c-13.67-5.42-13.77-5.46-13.07-6.15.26-.26,6.19,1.89,13.19,4.78,7,2.88,20.08,8.06,29.06,11.49l16.34,6.26.89,33.89.89,33.9,3.2-.06c2.77-.06,2.91-.18,1.06-.93-2.02-.82-2.16-1.87-2.81-20.11-.37-10.58-.67-25.34-.67-32.79v-13.55l2.81.56,2.81.55-3.06-1.53c-1.69-.85-16.62-6.76-33.19-13.14-25.69-9.9-30.18-11.93-30.45-13.81-.18-1.22-.12-2.21.13-2.21,2.28,0,68.16,25.17,69.57,26.57,1.04,1.05,2.25,60.84,1.43,71.1l-.34,4.23-5.11-2.04M588.96,244.83c-11.84-3.45-12.45-3.76-13.02-6.63-.9-4.46-.74-59.73.17-60.29.43-.27,6.29,1.72,13.02,4.4l12.24,4.89.7,3.96c.97,5.38,1.02,57.6.06,57.42-.42-.07-6.35-1.77-13.18-3.76M473.73,242.16l-8.17-2.3-.31-7.43c-.28-6.81-.14-7.38,1.53-6.74,1.01.39,5.17,1.68,9.24,2.89l7.4,2.18v6.94c0,3.82-.35,6.9-.77,6.85-.42-.05-4.44-1.12-8.94-2.39M238.34,232.65c0-2.39-1.85-1.57,166.97-73.72,48.04-20.53,48.88-20.87,79.61-32.69,16.01-6.16,30.07-11.71,31.26-12.35,1.18-.63,2.41-.88,2.73-.56.33.33-3.04,2.26-7.49,4.29-4.44,2.04-19.33,9.21-33.1,15.93-25.59,12.5-44.67,20.81-66.71,29.08-6.84,2.56-17.03,6.72-22.65,9.22-9.14,4.06-23.98,10.32-74.55,31.44-26.66,11.14-75.28,31.14-75.69,31.14-.21,0-.39-.81-.39-1.79M473.48,226.55l-8.43-2.67v-55.86l3.42-1.63c3.15-1.5,3.89-1.49,9.19.04l5.77,1.68v30.61c0,16.83-.35,30.59-.77,30.54-.42-.03-4.55-1.25-9.19-2.72M707.59,217.06c-1.12-.49-12.15-4.88-24.51-9.76s-22.97-9.5-23.59-10.26c-.61-.76-1.38-1.12-1.7-.81-.31.32-17.27-6.06-37.68-14.15-36.92-14.64-70.46-27.3-72.36-27.3-.55,0-1-1.33-1-2.96v-2.96l16.08,6.18c18.51,7.11,121.12,47.71,137.1,54.26,8.51,3.48,10.79,4.84,11.05,6.6.35,2.37-.2,2.56-3.39,1.17M667.76,210.69c-9.15-3.58-9.23-3.63-8.49-4.36.48-.48,16.96,6.12,18.08,7.23,1.02,1.02-1.86.15-9.59-2.87M368.04,154.8v-17.13l11.49-5.15c6.32-2.84,20.58-9.29,31.68-14.35l20.2-9.19-.29,17.9-.28,17.89-16.34,7.13c-8.99,3.92-23.12,10.03-31.4,13.57l-15.06,6.44v-17.13M479.09,165.57c-2.1-.52-3.83-1.24-3.83-1.59,0-.87,7.27-4.31,7.85-3.73.26.26.32,1.77.13,3.36-.32,2.82-.45,2.88-4.16,1.96M465.05,164.96c0-.54.69-.99,1.53-.99s1.53.18,1.53.4-.69.67-1.53.99c-.84.33-1.53.14-1.53-.4M628.44,143.86c-36.23-12.07-66.78-22.28-67.89-22.71-1.67-.63-.74-1.48,5.62-4.99,16.87-9.35,65.2-33.07,66.17-32.46.56.35,6.32,7.64,12.79,16.21,6.46,8.56,15.5,20.31,20.07,26.12,14.7,18.67,30.68,39.99,29.88,39.88-.42-.05-30.4-9.98-66.63-22.04M438.1,157.25c-.93-2.42-.91-2.46,3.08-4.13,2.77-1.15,4-1.26,4.85-.39.85.86.4,1.81-1.73,3.65-3.31,2.87-5.33,3.16-6.21.87M447.69,152.71c0-2.55,2.16-3.48,5.87-2.54l2.81.71-3.57,1.91c-4.58,2.44-5.11,2.43-5.11-.08M432.61,126.01l.28-17.52,15.17-6.94,15.17-6.94,22.11,6.74c12.16,3.71,24.33,7.4,27.03,8.23,2.71.82,4.76,1.65,4.55,1.86-.19.2-14.36,5.62-31.47,12.04-17.11,6.42-35.64,13.56-41.19,15.88-5.53,2.31-10.49,4.2-11,4.2s-.81-7.52-.64-17.53M432.16,102c-.11-2.71-.27-7.61-.34-10.89l-.13-5.96,2.93.58c6.82,1.37,26.44,8.08,25.66,8.78-1.03.92-22.38,10.66-25.61,11.68-2.14.67-2.31.4-2.51-4.2M760.95,856.64l-2.81-.42v-40.98l3.83.63c2.1.35,5.56.63,7.66.64h3.83v40.86l-4.85-.15c-2.67-.08-6.12-.35-7.66-.58M746.14,855.61l-4.34-.39v-19.41c0-12.67-.36-19.18-1.02-18.77-.56.35-1.02.14-1.02-.45,0-.66,2.98-1.08,7.78-1.08,7.57,0,7.76.06,7.16,2.3-.34,1.27-.62,10.46-.63,20.42-.01,16.65-.15,18.12-1.8,17.95-.98-.1-3.74-.36-6.13-.57M758.14,813.46c-3.4-1.09,9.51-1.09,13.79,0,2.28.58,1.23.79-4.08.8-3.93.01-8.29-.35-9.7-.8M634.32,845.4l-3.83-.4v-6.83c-.01-3.76-.31-11.34-.67-16.84l-.66-10.02,4.76.25,4.75.25v17.18c0,9.44-.11,17.08-.26,16.99-.14-.09-1.98-.35-4.08-.57M618.49,843.42c-.94-.39-1.28-4.63-1.28-16.26v-15.75h9.19v32.68l-3.32-.08c-1.83-.04-3.89-.31-4.6-.59M850.05,857.6c0-1.33,2.32-1.83,15.57-3.35l10.98-1.26v-22.41c0-17.46.29-22.31,1.28-21.98.96.32,1.35,6.06,1.55,23.04l.28,22.61-2.32.48c-1.28.27-6.91,1-12.53,1.63s-11.24,1.4-12.51,1.7c-1.27.31-2.3.09-2.3-.47M850.05,833.44v-19.97h9.23l-.28,19.66-.28,19.66-4.34.32-4.34.31v-19.96M862.3,832.87c0-17.77.15-19.41,1.79-19.47.98-.05,2.82-.28,4.08-.51l2.3-.43v19.28c0,19.13-.02,19.28-2.3,19.89-6.12,1.63-5.87,2.41-5.87-18.76M872.51,831.84c0-12.25.38-19.4,1.02-19.4s1.02,7.15,1.02,19.4-.38,19.4-1.02,19.4-1.02-7.15-1.02-19.4M851.58,810.46c2.54-1.03,22.98-1.91,22.98-.99,0,1.21-6.19,1.95-15.71,1.89-5.82-.04-8.55-.38-7.27-.9M910.3,849.16c0-.38,4.14-1.26,9.19-1.95l9.19-1.26v-18.21c0-10.01.31-19,.68-19.99.63-1.64-.09-1.73-9.45-1.11-5.82.38-9.48.29-8.6-.21.85-.48,5.56-1.19,10.47-1.57l8.94-.69v21.5c0,11.83-.11,21.52-.26,21.54-11.52,1.65-20.17,2.5-20.17,1.96M932.77,825.72c0-18.38.21-21.45,1.53-21.45s1.53,3.06,1.53,21.45-.21,21.45-1.53,21.45-1.53-3.06-1.53-21.45M910.3,827.84v-18.3l3.14-.69c1.73-.38,3.34-.49,3.57-.25.25.23.13,8.78-.23,18.98l-.67,18.56h-5.8v-18.3M920.51,826.86v-18.5h7.15v17.87c0,13.61-.31,17.87-1.28,17.88-.7.01-2.31.3-3.57.63l-2.3.61v-18.49M887.94,738.4l-.12-15.83h8.18v31.66h-7.92l-.13-15.83M899.07,738.4v-15.83h6.13v13.53c.02,7.44.31,14.56.64,15.83.55,2.07.26,2.3-3.07,2.3h-3.7v-15.83M907.24,737.38v-16.85h-9.88c-5.42,0-9.53-.35-9.1-.77.42-.42,5.09-.81,10.38-.86l9.62-.09v17.71c0,9.74-.23,17.71-.51,17.71s-.51-7.58-.51-16.85M642.49,754.52c-1.59-.39-1.79-1.93-1.79-14.07s.19-13.68,1.79-14.06c1.57-.38,1.52-.55-.37-1.36-2.07-.89-1.94-1.27,3.55-9.96l5.72-9.05,7.89,8.54c4.34,4.69,7.91,8.93,7.92,9.42.02.48-2.51.56-5.63.17-3.12-.4-7.37-.43-9.45-.07l-3.78.63.31,14.25.32,14.26,7.85-.02c4.33,0,8.55-.44,9.37-.97.83-.52,1.55-2.47,1.61-4.32.05-1.86.17-7.55.28-12.66l.17-9.29,3.06-.08,3.06-.09v28.46l-6.89.14c-3.79.08-10.57.25-15.06.36-4.49.12-8.98.02-9.96-.21M676.43,741.21c-.01-6.04-.28-11.93-.58-13.09-.54-1.99.05-2.18,9.97-3.2,5.8-.6,10.69-.94,10.89-.77.4.35-19.21,28.03-19.85,28.03-.22,0-.42-4.94-.42-10.98M650.91,737.89c0-10.55.12-11.23,2.04-11.23s2.04.68,2.04,11.23-.12,11.23-2.04,11.23-2.04-.68-2.04-11.23M657.04,738.27v-10.59h9.19v21.37l-4.6-.09-4.6-.09v-10.6M675.28,722.72c-.2-.57-5.31-6.32-11.35-12.77-6.04-6.44-10.98-11.95-10.98-12.22s.81-.34,1.79-.14c2.2.44,28.92,1.48,38.14,1.49h6.74s.63,10.47.63,10.47c.47,7.63.31,10.77-.61,11.63-1.64,1.55-23.87,2.95-24.37,1.54M676.85,711.09c-8.92-10.59-12.22-14.21-9.59-10.47,4.19,5.91,17.16,20.93,18.09,20.93.17,0-3.66-4.71-8.5-10.47M691.87,719.77c-.54-.98-4.58-5.51-8.98-10.06-4.39-4.55-5.91-5.93-3.37-3.06,2.54,2.86,6.38,7.39,8.55,10.06,4.06,5,5.51,6.18,3.8,3.06M696.01,715.68c-5-5.91-13.54-15-11.35-12.07,2.9,3.85,14.45,16.92,14.96,16.92.28,0-1.35-2.19-3.62-4.85M694.94,705.38c-1.13-1.59-2.88-3.54-3.87-4.34-1-.79-.3.51,1.56,2.9,3.8,4.86,5.51,5.93,2.31,1.44M696.87,701.7c0-.25-.46-.74-1.02-1.08s-1.02-.14-1.02.45.46,1.08,1.02,1.08,1.02-.2,1.02-.45M769.37,752.3q2.55-.71,2.84-15.22l.28-14.51h6.08l.21,15.06.2,15.06.6-14.3.6-14.3.2,14.55.21,14.55-6.89-.1c-4.49-.06-6-.35-4.34-.81M781.63,738.49c0-9.25-.39-14.9-1.02-14.9-.56,0-1.02-.46-1.02-1.02,0-1.15,21.98-1.32,24.58-.18,1.26.54-1,3.96-10.47,15.85l-12.07,15.16v-14.91M750.99,735.85v-12.25h8.17v24.51h-8.17v-12.25M761.2,735.85v-12.25h8.17v24.51h-8.17v-12.25M730.57,722.57c0-1.21,24.67-32.35,25.79-32.55,1.69-.3.3,1.93-9.14,14.67-12.89,17.38-16.65,21.43-16.65,17.87M744.64,710.57c4.97-6.6,10.08-13.49,11.35-15.32,1.26-1.83,2.64-3.32,3.06-3.32.78,0,23.6,27.15,23.6,28.08,0,.29-.86.51-1.91.51-2.12,0-6.81-4.81-15.94-16.34-3.34-4.21-6.26-7.89-6.51-8.17-.23-.28-.62.03-.87.69-.65,1.84-13.55,19.87-16.48,23.05-1.42,1.54-3.21,2.81-3.96,2.81s2.7-5.4,7.66-12M790.69,719.78l-5.75-.36-7.53-9.31c-4.15-5.12-9.08-11.07-10.98-13.22l-3.43-3.92h8.03c15.23.03,14.61-.32,23.92,13.41,4.51,6.67,8.43,12.12,8.68,12.12.59,0-8-13.17-12.63-19.4l-3.42-4.6,7.84-.3c5.29-.2,8.37.12,9.48,1.02,1.23.99,1.44,1,.86.04-.55-.92.21-1.28,2.78-1.28h3.54l-.53,12c-.41,9.28-.89,12.29-2.14,13.28-1.55,1.23-5.76,1.35-18.71.52M792.89,714.47c-.58-1.09-1.57-2.3-2.19-2.69-.61-.38-.33.51.63,1.99,2.04,3.11,3.1,3.59,1.55.69M809.58,714.15c-3.41-5.66-7.68-12-8.08-12-.44,0,1.21,2.86,6.3,10.98,1.48,2.36,3.16,3.32,1.78,1.02M789.8,709.96c0-.18-1.03-1.23-2.3-2.3l-2.3-1.94,1.94,2.3c1.84,2.15,2.66,2.77,2.66,1.94M799.41,698.58c-.92-1.41-1.88-2.55-2.12-2.55-.5,0,.46,1.85,1.99,3.83,1.76,2.28,1.85,1.35.13-1.28M809.2,699.72c0-.21-.81-1.01-1.79-1.79-1.62-1.27-1.65-1.24-.39.39,1.34,1.71,2.18,2.25,2.18,1.4M688.75,505.57l-.13-27.06h10.29v54.12h-10.03l-.13-27.06Z"/></svg>